G04 #@! TF.GenerationSoftware,KiCad,Pcbnew,9.0.6*
G04 #@! TF.CreationDate,2026-03-05T16:11:11+09:00*
G04 #@! TF.ProjectId,PowerMeter2026-nRF,506f7765-724d-4657-9465-72323032362d,rev?*
G04 #@! TF.SameCoordinates,Original*
G04 #@! TF.FileFunction,Copper,L1,Top*
G04 #@! TF.FilePolarity,Positive*
%FSLAX46Y46*%
G04 Gerber Fmt 4.6, Leading zero omitted, Abs format (unit mm)*
G04 Created by KiCad (PCBNEW 9.0.6) date 2026-03-05 16:11:11*
%MOMM*%
%LPD*%
G01*
G04 APERTURE LIST*
G04 Aperture macros list*
%AMRoundRect*
0 Rectangle with rounded corners*
0 $1 Rounding radius*
0 $2 $3 $4 $5 $6 $7 $8 $9 X,Y pos of 4 corners*
0 Add a 4 corners polygon primitive as box body*
4,1,4,$2,$3,$4,$5,$6,$7,$8,$9,$2,$3,0*
0 Add four circle primitives for the rounded corners*
1,1,$1+$1,$2,$3*
1,1,$1+$1,$4,$5*
1,1,$1+$1,$6,$7*
1,1,$1+$1,$8,$9*
0 Add four rect primitives between the rounded corners*
20,1,$1+$1,$2,$3,$4,$5,0*
20,1,$1+$1,$4,$5,$6,$7,0*
20,1,$1+$1,$6,$7,$8,$9,0*
20,1,$1+$1,$8,$9,$2,$3,0*%
%AMOutline5P*
0 Free polygon, 5 corners , with rotation*
0 The origin of the aperture is its center*
0 number of corners: always 5*
0 $1 to $10 corner X, Y*
0 $11 Rotation angle, in degrees counterclockwise*
0 create outline with 5 corners*
4,1,5,$1,$2,$3,$4,$5,$6,$7,$8,$9,$10,$1,$2,$11*%
%AMOutline6P*
0 Free polygon, 6 corners , with rotation*
0 The origin of the aperture is its center*
0 number of corners: always 6*
0 $1 to $12 corner X, Y*
0 $13 Rotation angle, in degrees counterclockwise*
0 create outline with 6 corners*
4,1,6,$1,$2,$3,$4,$5,$6,$7,$8,$9,$10,$11,$12,$1,$2,$13*%
%AMOutline7P*
0 Free polygon, 7 corners , with rotation*
0 The origin of the aperture is its center*
0 number of corners: always 7*
0 $1 to $14 corner X, Y*
0 $15 Rotation angle, in degrees counterclockwise*
0 create outline with 7 corners*
4,1,7,$1,$2,$3,$4,$5,$6,$7,$8,$9,$10,$11,$12,$13,$14,$1,$2,$15*%
%AMOutline8P*
0 Free polygon, 8 corners , with rotation*
0 The origin of the aperture is its center*
0 number of corners: always 8*
0 $1 to $16 corner X, Y*
0 $17 Rotation angle, in degrees counterclockwise*
0 create outline with 8 corners*
4,1,8,$1,$2,$3,$4,$5,$6,$7,$8,$9,$10,$11,$12,$13,$14,$15,$16,$1,$2,$17*%
G04 Aperture macros list end*
G04 #@! TA.AperFunction,ComponentPad*
%ADD10R,1.700000X1.700000*%
G04 #@! TD*
G04 #@! TA.AperFunction,ComponentPad*
%ADD11C,1.700000*%
G04 #@! TD*
G04 #@! TA.AperFunction,ComponentPad*
%ADD12RoundRect,0.250000X-0.350000X-0.350000X0.350000X-0.350000X0.350000X0.350000X-0.350000X0.350000X0*%
G04 #@! TD*
G04 #@! TA.AperFunction,ComponentPad*
%ADD13C,1.200000*%
G04 #@! TD*
G04 #@! TA.AperFunction,ComponentPad*
%ADD14C,1.500000*%
G04 #@! TD*
G04 #@! TA.AperFunction,ComponentPad*
%ADD15C,1.270000*%
G04 #@! TD*
G04 #@! TA.AperFunction,ComponentPad*
%ADD16Outline8P,-0.750000X0.310660X-0.310660X0.750000X0.310660X0.750000X0.750000X0.310660X0.750000X-0.310660X0.310660X-0.750000X-0.310660X-0.750000X-0.750000X-0.310660X180.000000*%
G04 #@! TD*
G04 #@! TA.AperFunction,ComponentPad*
%ADD17Outline8P,-0.750000X0.310660X-0.310660X0.750000X0.310660X0.750000X0.750000X0.310660X0.750000X-0.310660X0.310660X-0.750000X-0.310660X-0.750000X-0.750000X-0.310660X0.000000*%
G04 #@! TD*
G04 #@! TA.AperFunction,ComponentPad*
%ADD18O,1.700000X1.700000*%
G04 #@! TD*
G04 #@! TA.AperFunction,ComponentPad*
%ADD19RoundRect,0.250000X-0.350000X0.350000X-0.350000X-0.350000X0.350000X-0.350000X0.350000X0.350000X0*%
G04 #@! TD*
G04 #@! TA.AperFunction,ComponentPad*
%ADD20C,1.524000*%
G04 #@! TD*
G04 #@! TA.AperFunction,ViaPad*
%ADD21C,0.700000*%
G04 #@! TD*
G04 #@! TA.AperFunction,ViaPad*
%ADD22C,0.500000*%
G04 #@! TD*
G04 #@! TA.AperFunction,Conductor*
%ADD23C,0.400000*%
G04 #@! TD*
G04 #@! TA.AperFunction,Conductor*
%ADD24C,0.200000*%
G04 #@! TD*
G04 APERTURE END LIST*
D10*
X195720000Y-44720000D03*
D11*
X195720000Y-42180000D03*
X195720000Y-39640000D03*
X195720000Y-37100000D03*
D12*
X239390000Y-22810000D03*
D13*
X239390000Y-24810000D03*
X241390000Y-22810000D03*
X241390000Y-24810000D03*
X243390000Y-22810000D03*
X243390000Y-24810000D03*
X245390000Y-22810000D03*
X245390000Y-24810000D03*
X247390000Y-22810000D03*
X247390000Y-24810000D03*
D14*
X235770000Y-13675000D03*
D15*
X234500000Y-13675000D03*
D14*
X235770000Y-16215000D03*
D15*
X234500000Y-16215000D03*
X252280000Y-18755000D03*
D16*
X251010000Y-18755000D03*
D15*
X252280000Y-16215000D03*
D14*
X251010000Y-16215000D03*
D15*
X252280000Y-8595000D03*
D14*
X251010000Y-8595000D03*
D15*
X252280000Y-6055000D03*
D14*
X251010000Y-6055000D03*
D15*
X252280000Y-13675000D03*
D14*
X251010000Y-13675000D03*
D15*
X252280000Y-11135000D03*
D14*
X251010000Y-11135000D03*
D15*
X252280000Y-3515000D03*
D14*
X251010000Y-3515000D03*
D17*
X235770000Y-3515000D03*
D15*
X234500000Y-3515000D03*
D14*
X235770000Y-6055000D03*
D15*
X234500000Y-6055000D03*
D14*
X235770000Y-8595000D03*
D15*
X234500000Y-8595000D03*
D14*
X235770000Y-11135000D03*
D15*
X234500000Y-11135000D03*
D14*
X235770000Y-18755000D03*
D15*
X234500000Y-18755000D03*
D10*
X250900000Y-38550000D03*
D18*
X250900000Y-41090000D03*
X250900000Y-43630000D03*
D19*
X192070000Y-37060000D03*
D13*
X190070000Y-37060000D03*
X192070000Y-39060000D03*
X190070000Y-39060000D03*
X192070000Y-41060000D03*
X190070000Y-41060000D03*
X192070000Y-43060000D03*
X190070000Y-43060000D03*
X192070000Y-45060000D03*
X190070000Y-45060000D03*
D20*
X245310000Y-41040000D03*
X200510000Y-41040000D03*
D21*
X238920000Y-43190000D03*
X217141000Y-43744000D03*
X235966000Y-45479000D03*
X213360000Y-44570000D03*
X242350000Y-38330000D03*
X238030000Y-45680000D03*
X224220000Y-36110000D03*
X224290000Y-42570000D03*
X203230000Y-36690000D03*
X235870000Y-41890000D03*
X241808000Y-43900000D03*
X232570000Y-41910000D03*
X208730000Y-44920000D03*
X213669938Y-40139400D03*
X213609678Y-38485000D03*
X212980000Y-39130000D03*
X213840000Y-41030000D03*
X213975234Y-37662584D03*
D22*
X235492800Y-20856700D03*
X240582800Y-28356700D03*
X249852800Y-21166700D03*
X246462800Y-28326700D03*
X243822800Y-8966700D03*
X238872250Y-19317250D03*
X248412800Y-15576700D03*
D23*
X189655372Y-46061000D02*
X228419000Y-46061000D01*
X228419000Y-46061000D02*
X232570000Y-41910000D01*
X190070000Y-43060000D02*
X189069000Y-44061000D01*
X189069000Y-45474628D02*
X189655372Y-46061000D01*
X189069000Y-44061000D02*
X189069000Y-45474628D01*
X195720000Y-44720000D02*
X196460000Y-45460000D01*
X196460000Y-45460000D02*
X208190000Y-45460000D01*
X208190000Y-45460000D02*
X208730000Y-44920000D01*
X213669938Y-40139400D02*
X211606338Y-42203000D01*
X192201000Y-40929000D02*
X192070000Y-41060000D01*
X197512182Y-42203000D02*
X196238182Y-40929000D01*
X211606338Y-42203000D02*
X197512182Y-42203000D01*
X196238182Y-40929000D02*
X192201000Y-40929000D01*
X196311000Y-35849000D02*
X193281000Y-35849000D01*
X198212000Y-37750000D02*
X196311000Y-35849000D01*
X212874678Y-37750000D02*
X198212000Y-37750000D01*
X213609678Y-38485000D02*
X212874678Y-37750000D01*
X193281000Y-35849000D02*
X192070000Y-37060000D01*
X192779000Y-38351000D02*
X192070000Y-39060000D01*
X212980000Y-39130000D02*
X212201000Y-38351000D01*
X212201000Y-38351000D02*
X192779000Y-38351000D01*
X213840000Y-41030000D02*
X211401000Y-43469000D01*
X211401000Y-43469000D02*
X192479000Y-43469000D01*
X192479000Y-43469000D02*
X192070000Y-43060000D01*
X213975234Y-37662584D02*
X211560650Y-35248000D01*
X191882000Y-35248000D02*
X190070000Y-37060000D01*
X211560650Y-35248000D02*
X191882000Y-35248000D01*
X236921000Y-22341000D02*
X236921000Y-14826000D01*
X236921000Y-14826000D02*
X235770000Y-13675000D01*
X236921000Y-22341000D02*
X239390000Y-24810000D01*
D24*
X243390000Y-24810000D02*
X244291000Y-23909000D01*
X244291000Y-23909000D02*
X245763207Y-23909000D01*
X246462800Y-24608593D02*
X246462800Y-28326700D01*
X245763207Y-23909000D02*
X246462800Y-24608593D01*
D23*
X245445000Y-18755000D02*
X241390000Y-22810000D01*
X251010000Y-18755000D02*
X245445000Y-18755000D01*
X248525000Y-13675000D02*
X251010000Y-13675000D01*
X239390000Y-22810000D02*
X248525000Y-13675000D01*
X245390000Y-24810000D02*
X244389000Y-25811000D01*
X233464000Y-4551000D02*
X234500000Y-3515000D01*
X238975372Y-25811000D02*
X233464000Y-20299628D01*
X233464000Y-20299628D02*
X233464000Y-4551000D01*
X244389000Y-25811000D02*
X238975372Y-25811000D01*
G04 #@! TA.AperFunction,Conductor*
G36*
X191006289Y-41642736D02*
G01*
X191057007Y-41638747D01*
X191125384Y-41653113D01*
X191167049Y-41689479D01*
X191215266Y-41755842D01*
X191230586Y-41776928D01*
X191353072Y-41899414D01*
X191353078Y-41899418D01*
X191436023Y-41959683D01*
X191478689Y-42015013D01*
X191484667Y-42084626D01*
X191452061Y-42146421D01*
X191436023Y-42160317D01*
X191353078Y-42220581D01*
X191353069Y-42220588D01*
X191230588Y-42343069D01*
X191230581Y-42343078D01*
X191170317Y-42426023D01*
X191114987Y-42468689D01*
X191045374Y-42474667D01*
X190983579Y-42442061D01*
X190969683Y-42426023D01*
X190909418Y-42343078D01*
X190909414Y-42343072D01*
X190786928Y-42220586D01*
X190772365Y-42210005D01*
X190699479Y-42157049D01*
X190656813Y-42101719D01*
X190648747Y-42047007D01*
X190652736Y-41996288D01*
X190091448Y-41435000D01*
X190119370Y-41435000D01*
X190214745Y-41409444D01*
X190300255Y-41360075D01*
X190370075Y-41290255D01*
X190419444Y-41204745D01*
X190445000Y-41109370D01*
X190445000Y-41081447D01*
X191006289Y-41642736D01*
G37*
G04 #@! TD.AperFunction*
G04 #@! TA.AperFunction,Conductor*
G36*
X211926520Y-39071185D02*
G01*
X211947162Y-39087819D01*
X212116903Y-39257559D01*
X212150388Y-39318882D01*
X212150839Y-39321049D01*
X212162182Y-39378074D01*
X212162184Y-39378082D01*
X212226295Y-39532860D01*
X212319373Y-39672162D01*
X212437837Y-39790626D01*
X212517408Y-39843793D01*
X212577137Y-39883703D01*
X212577138Y-39883703D01*
X212577139Y-39883704D01*
X212658715Y-39917494D01*
X212713118Y-39961335D01*
X212735183Y-40027629D01*
X212717904Y-40095329D01*
X212698943Y-40119736D01*
X211352500Y-41466181D01*
X211291177Y-41499666D01*
X211264819Y-41502500D01*
X201857341Y-41502500D01*
X201790302Y-41482815D01*
X201744547Y-41430011D01*
X201734603Y-41360853D01*
X201739411Y-41340179D01*
X201740925Y-41335519D01*
X201772000Y-41139321D01*
X201772000Y-40940678D01*
X201740924Y-40744479D01*
X201740924Y-40744476D01*
X201679542Y-40555562D01*
X201589358Y-40378567D01*
X201562268Y-40341283D01*
X200891000Y-41012551D01*
X200891000Y-40989840D01*
X200865036Y-40892939D01*
X200814876Y-40806060D01*
X200743940Y-40735124D01*
X200657061Y-40684964D01*
X200560160Y-40659000D01*
X200537447Y-40659000D01*
X201208716Y-39987731D01*
X201208715Y-39987730D01*
X201171432Y-39960641D01*
X200994437Y-39870457D01*
X200805522Y-39809075D01*
X200609321Y-39778000D01*
X200410679Y-39778000D01*
X200214479Y-39809075D01*
X200214476Y-39809075D01*
X200025562Y-39870457D01*
X199848564Y-39960643D01*
X199811283Y-39987729D01*
X199811282Y-39987730D01*
X200482554Y-40659000D01*
X200459840Y-40659000D01*
X200362939Y-40684964D01*
X200276060Y-40735124D01*
X200205124Y-40806060D01*
X200154964Y-40892939D01*
X200129000Y-40989840D01*
X200129000Y-41012552D01*
X199457730Y-40341282D01*
X199457729Y-40341283D01*
X199430643Y-40378564D01*
X199340457Y-40555562D01*
X199279075Y-40744476D01*
X199279075Y-40744479D01*
X199248000Y-40940678D01*
X199248000Y-41139321D01*
X199279074Y-41335519D01*
X199280589Y-41340179D01*
X199282586Y-41410020D01*
X199246507Y-41469854D01*
X199183806Y-41500683D01*
X199162659Y-41502500D01*
X197853701Y-41502500D01*
X197786662Y-41482815D01*
X197766020Y-41466181D01*
X196854247Y-40554408D01*
X196820762Y-40493085D01*
X196825746Y-40423393D01*
X196841608Y-40393846D01*
X196875051Y-40347816D01*
X196971557Y-40158412D01*
X197037246Y-39956243D01*
X197070500Y-39746287D01*
X197070500Y-39533713D01*
X197037246Y-39323757D01*
X197001523Y-39213816D01*
X196999529Y-39143977D01*
X197035609Y-39084144D01*
X197098310Y-39053316D01*
X197119455Y-39051500D01*
X211859481Y-39051500D01*
X211926520Y-39071185D01*
G37*
G04 #@! TD.AperFunction*
G04 #@! TA.AperFunction,Conductor*
G36*
X191156421Y-39677938D02*
G01*
X191170315Y-39693973D01*
X191230586Y-39776928D01*
X191353072Y-39899414D01*
X191354567Y-39900500D01*
X191436023Y-39959683D01*
X191478689Y-40015013D01*
X191484667Y-40084626D01*
X191452061Y-40146421D01*
X191436023Y-40160317D01*
X191353078Y-40220581D01*
X191353069Y-40220588D01*
X191230588Y-40343069D01*
X191230581Y-40343078D01*
X191167049Y-40430521D01*
X191111719Y-40473187D01*
X191057003Y-40481253D01*
X191006289Y-40477261D01*
X190445000Y-41038551D01*
X190445000Y-41010630D01*
X190419444Y-40915255D01*
X190370075Y-40829745D01*
X190300255Y-40759925D01*
X190214745Y-40710556D01*
X190119370Y-40685000D01*
X190091447Y-40685000D01*
X190652736Y-40123710D01*
X190648745Y-40072999D01*
X190663108Y-40004622D01*
X190699478Y-39962950D01*
X190701701Y-39961335D01*
X190786928Y-39899414D01*
X190909414Y-39776928D01*
X190969682Y-39693975D01*
X191025012Y-39651311D01*
X191094626Y-39645332D01*
X191156421Y-39677938D01*
G37*
G04 #@! TD.AperFunction*
G04 #@! TA.AperFunction,Conductor*
G36*
X211286170Y-35968185D02*
G01*
X211306812Y-35984819D01*
X211805205Y-36483212D01*
X212159813Y-36837819D01*
X212193298Y-36899142D01*
X212188314Y-36968833D01*
X212146442Y-37024767D01*
X212080978Y-37049184D01*
X212072132Y-37049500D01*
X198553519Y-37049500D01*
X198486480Y-37029815D01*
X198465838Y-37013181D01*
X197612838Y-36160181D01*
X197579353Y-36098858D01*
X197584337Y-36029166D01*
X197626209Y-35973233D01*
X197691673Y-35948816D01*
X197700519Y-35948500D01*
X211219131Y-35948500D01*
X211286170Y-35968185D01*
G37*
G04 #@! TD.AperFunction*
G04 #@! TA.AperFunction,Conductor*
G36*
X250170000Y-34240000D02*
G01*
X250170000Y-34239999D01*
X250191998Y-34240144D01*
X250204729Y-34233248D01*
X250230688Y-34230500D01*
X250238692Y-34230500D01*
X252931324Y-34230500D01*
X252960764Y-34239144D01*
X252990751Y-34245668D01*
X252995766Y-34249422D01*
X252998363Y-34250185D01*
X253019005Y-34266819D01*
X253153181Y-34400995D01*
X253186666Y-34462318D01*
X253189500Y-34488676D01*
X253189500Y-47311324D01*
X253169815Y-47378363D01*
X253153181Y-47399005D01*
X253019005Y-47533181D01*
X252957682Y-47566666D01*
X252931324Y-47569500D01*
X183028676Y-47569500D01*
X182999235Y-47560855D01*
X182969249Y-47554332D01*
X182964233Y-47550577D01*
X182961637Y-47549815D01*
X182940995Y-47533181D01*
X182806819Y-47399005D01*
X182773334Y-47337682D01*
X182770500Y-47311324D01*
X182770500Y-45543624D01*
X188368499Y-45543624D01*
X188395418Y-45678950D01*
X188395421Y-45678960D01*
X188448222Y-45806435D01*
X188524887Y-45921173D01*
X189208826Y-46605112D01*
X189323562Y-46681776D01*
X189422162Y-46722617D01*
X189451043Y-46734580D01*
X189451044Y-46734580D01*
X189451049Y-46734582D01*
X189477917Y-46739925D01*
X189477923Y-46739926D01*
X189477963Y-46739934D01*
X189568309Y-46757905D01*
X189586378Y-46761500D01*
X189586379Y-46761500D01*
X228487996Y-46761500D01*
X228596457Y-46739925D01*
X228623328Y-46734580D01*
X228687069Y-46708177D01*
X228750807Y-46681777D01*
X228750808Y-46681776D01*
X228750811Y-46681775D01*
X228865543Y-46605114D01*
X232697560Y-42773094D01*
X232758881Y-42739611D01*
X232760959Y-42739177D01*
X232818082Y-42727816D01*
X232972863Y-42663703D01*
X233112162Y-42570626D01*
X233230626Y-42452162D01*
X233323703Y-42312863D01*
X233387816Y-42158082D01*
X233420500Y-41993767D01*
X233420500Y-41826233D01*
X233387816Y-41661918D01*
X233330950Y-41524632D01*
X233323704Y-41507139D01*
X233320604Y-41502500D01*
X233292537Y-41460494D01*
X233230626Y-41367837D01*
X233112162Y-41249373D01*
X232972860Y-41156295D01*
X232818082Y-41092184D01*
X232818074Y-41092182D01*
X232653771Y-41059500D01*
X232653767Y-41059500D01*
X232486233Y-41059500D01*
X232486228Y-41059500D01*
X232321925Y-41092182D01*
X232321917Y-41092184D01*
X232167139Y-41156295D01*
X232027837Y-41249373D01*
X231909373Y-41367837D01*
X231816295Y-41507139D01*
X231752184Y-41661917D01*
X231752182Y-41661923D01*
X231740839Y-41718950D01*
X231708454Y-41780861D01*
X231706903Y-41782439D01*
X228165162Y-45324181D01*
X228103839Y-45357666D01*
X228077481Y-45360500D01*
X209653693Y-45360500D01*
X209586654Y-45340815D01*
X209540899Y-45288011D01*
X209530955Y-45218853D01*
X209539132Y-45189048D01*
X209547814Y-45168086D01*
X209547816Y-45168082D01*
X209580500Y-45003767D01*
X209580500Y-44836233D01*
X209547816Y-44671918D01*
X209483703Y-44517137D01*
X209433539Y-44442061D01*
X209390626Y-44377837D01*
X209386761Y-44373128D01*
X209388702Y-44371534D01*
X209360485Y-44319858D01*
X209365469Y-44250166D01*
X209407341Y-44194233D01*
X209472805Y-44169816D01*
X209481651Y-44169500D01*
X211469996Y-44169500D01*
X211586018Y-44146421D01*
X211605328Y-44142580D01*
X211669069Y-44116177D01*
X211732807Y-44089777D01*
X211732808Y-44089776D01*
X211732811Y-44089775D01*
X211847543Y-44013114D01*
X213967561Y-41893094D01*
X214028882Y-41859611D01*
X214030947Y-41859180D01*
X214088082Y-41847816D01*
X214242863Y-41783703D01*
X214382162Y-41690626D01*
X214500626Y-41572162D01*
X214593703Y-41432863D01*
X214657816Y-41278082D01*
X214690500Y-41113767D01*
X214690500Y-40946233D01*
X214689387Y-40940639D01*
X244047500Y-40940639D01*
X244047500Y-41139361D01*
X244050388Y-41157596D01*
X244078587Y-41335637D01*
X244139993Y-41524629D01*
X244139994Y-41524632D01*
X244227564Y-41696496D01*
X244230213Y-41701694D01*
X244347019Y-41862464D01*
X244487536Y-42002981D01*
X244648306Y-42119787D01*
X244723448Y-42158074D01*
X244825367Y-42210005D01*
X244825370Y-42210006D01*
X244857933Y-42220586D01*
X245014364Y-42271413D01*
X245210639Y-42302500D01*
X245210640Y-42302500D01*
X245409360Y-42302500D01*
X245409361Y-42302500D01*
X245605636Y-42271413D01*
X245794632Y-42210005D01*
X245971694Y-42119787D01*
X246132464Y-42002981D01*
X246272981Y-41862464D01*
X246389787Y-41701694D01*
X246480005Y-41524632D01*
X246541413Y-41335636D01*
X246572500Y-41139361D01*
X246572500Y-40940639D01*
X246541413Y-40744364D01*
X246480005Y-40555368D01*
X246480005Y-40555367D01*
X246416392Y-40430521D01*
X246389787Y-40378306D01*
X246272981Y-40217536D01*
X246132464Y-40077019D01*
X245971694Y-39960213D01*
X245970652Y-39959682D01*
X245794632Y-39869994D01*
X245794629Y-39869993D01*
X245605637Y-39808587D01*
X245492235Y-39790626D01*
X245409361Y-39777500D01*
X245210639Y-39777500D01*
X245145214Y-39787862D01*
X245014362Y-39808587D01*
X244825370Y-39869993D01*
X244825367Y-39869994D01*
X244648305Y-39960213D01*
X244487533Y-40077021D01*
X244347021Y-40217533D01*
X244230213Y-40378305D01*
X244139994Y-40555367D01*
X244139993Y-40555370D01*
X244078587Y-40744362D01*
X244068815Y-40806060D01*
X244047500Y-40940639D01*
X214689387Y-40940639D01*
X214657816Y-40781918D01*
X214593703Y-40627137D01*
X214593701Y-40627134D01*
X214503419Y-40492016D01*
X214482541Y-40425339D01*
X214486969Y-40393537D01*
X214486566Y-40393457D01*
X214520437Y-40223171D01*
X214520438Y-40223168D01*
X214520438Y-40055632D01*
X214520437Y-40055628D01*
X214508710Y-39996671D01*
X214487754Y-39891318D01*
X214432343Y-39757546D01*
X214423642Y-39736539D01*
X214330564Y-39597237D01*
X214212103Y-39478776D01*
X214212099Y-39478773D01*
X214086977Y-39395169D01*
X214042172Y-39341557D01*
X214033465Y-39272232D01*
X214063619Y-39209204D01*
X214086974Y-39188967D01*
X214151840Y-39145626D01*
X214270304Y-39027162D01*
X214363381Y-38887863D01*
X214427494Y-38733082D01*
X214460178Y-38568767D01*
X214460178Y-38427720D01*
X214479863Y-38360681D01*
X214512778Y-38327175D01*
X214512692Y-38327070D01*
X214513668Y-38326268D01*
X214515292Y-38324615D01*
X214517396Y-38323210D01*
X214635860Y-38204746D01*
X214728937Y-38065447D01*
X214793050Y-37910666D01*
X214825734Y-37746351D01*
X214825734Y-37652135D01*
X249549500Y-37652135D01*
X249549500Y-39447870D01*
X249549501Y-39447876D01*
X249555908Y-39507483D01*
X249606202Y-39642328D01*
X249606206Y-39642335D01*
X249692452Y-39757544D01*
X249692455Y-39757547D01*
X249807664Y-39843793D01*
X249807671Y-39843797D01*
X249939082Y-39892810D01*
X249995016Y-39934681D01*
X250019433Y-40000145D01*
X250004582Y-40068418D01*
X249983431Y-40096673D01*
X249869889Y-40210215D01*
X249744951Y-40382179D01*
X249648444Y-40571585D01*
X249582753Y-40773760D01*
X249549500Y-40983713D01*
X249549500Y-41196286D01*
X249575441Y-41360075D01*
X249582754Y-41406243D01*
X249615537Y-41507139D01*
X249648444Y-41608414D01*
X249744951Y-41797820D01*
X249869890Y-41969786D01*
X250020213Y-42120109D01*
X250192182Y-42245050D01*
X250200946Y-42249516D01*
X250251742Y-42297491D01*
X250268536Y-42365312D01*
X250245998Y-42431447D01*
X250200946Y-42470484D01*
X250192182Y-42474949D01*
X250020213Y-42599890D01*
X249869890Y-42750213D01*
X249744951Y-42922179D01*
X249648444Y-43111585D01*
X249582753Y-43313760D01*
X249549500Y-43523713D01*
X249549500Y-43736286D01*
X249575337Y-43899418D01*
X249582754Y-43946243D01*
X249646548Y-44142581D01*
X249648444Y-44148414D01*
X249744951Y-44337820D01*
X249869890Y-44509786D01*
X250020213Y-44660109D01*
X250192179Y-44785048D01*
X250192181Y-44785049D01*
X250192184Y-44785051D01*
X250381588Y-44881557D01*
X250583757Y-44947246D01*
X250793713Y-44980500D01*
X250793714Y-44980500D01*
X251006286Y-44980500D01*
X251006287Y-44980500D01*
X251216243Y-44947246D01*
X251418412Y-44881557D01*
X251607816Y-44785051D01*
X251644512Y-44758390D01*
X251779786Y-44660109D01*
X251779788Y-44660106D01*
X251779792Y-44660104D01*
X251930104Y-44509792D01*
X251930106Y-44509788D01*
X251930109Y-44509786D01*
X252055048Y-44337820D01*
X252055047Y-44337820D01*
X252055051Y-44337816D01*
X252151557Y-44148412D01*
X252217246Y-43946243D01*
X252250500Y-43736287D01*
X252250500Y-43523713D01*
X252217246Y-43313757D01*
X252151557Y-43111588D01*
X252055051Y-42922184D01*
X252055049Y-42922181D01*
X252055048Y-42922179D01*
X251930109Y-42750213D01*
X251779786Y-42599890D01*
X251607820Y-42474951D01*
X251607115Y-42474591D01*
X251599054Y-42470485D01*
X251548259Y-42422512D01*
X251531463Y-42354692D01*
X251553999Y-42288556D01*
X251599054Y-42249515D01*
X251607816Y-42245051D01*
X251724442Y-42160318D01*
X251779786Y-42120109D01*
X251779788Y-42120106D01*
X251779792Y-42120104D01*
X251930104Y-41969792D01*
X251930106Y-41969788D01*
X251930109Y-41969786D01*
X252055048Y-41797820D01*
X252055047Y-41797820D01*
X252055051Y-41797816D01*
X252151557Y-41608412D01*
X252217246Y-41406243D01*
X252250500Y-41196287D01*
X252250500Y-40983713D01*
X252217246Y-40773757D01*
X252151557Y-40571588D01*
X252055051Y-40382184D01*
X252055049Y-40382181D01*
X252055048Y-40382179D01*
X251930109Y-40210213D01*
X251816569Y-40096673D01*
X251783084Y-40035350D01*
X251788068Y-39965658D01*
X251829940Y-39909725D01*
X251860915Y-39892810D01*
X251992331Y-39843796D01*
X252107546Y-39757546D01*
X252193796Y-39642331D01*
X252244091Y-39507483D01*
X252250500Y-39447873D01*
X252250499Y-37652128D01*
X252244091Y-37592517D01*
X252238981Y-37578817D01*
X252193797Y-37457671D01*
X252193793Y-37457664D01*
X252107547Y-37342455D01*
X252107544Y-37342452D01*
X251992335Y-37256206D01*
X251992328Y-37256202D01*
X251857482Y-37205908D01*
X251857483Y-37205908D01*
X251797883Y-37199501D01*
X251797881Y-37199500D01*
X251797873Y-37199500D01*
X251797864Y-37199500D01*
X250002129Y-37199500D01*
X250002123Y-37199501D01*
X249942516Y-37205908D01*
X249807671Y-37256202D01*
X249807664Y-37256206D01*
X249692455Y-37342452D01*
X249692452Y-37342455D01*
X249606206Y-37457664D01*
X249606202Y-37457671D01*
X249555908Y-37592517D01*
X249551791Y-37630815D01*
X249549501Y-37652123D01*
X249549500Y-37652135D01*
X214825734Y-37652135D01*
X214825734Y-37578817D01*
X214793050Y-37414502D01*
X214728937Y-37259721D01*
X214688699Y-37199501D01*
X214635860Y-37120421D01*
X214517396Y-37001957D01*
X214378094Y-36908879D01*
X214223316Y-36844768D01*
X214223308Y-36844766D01*
X214166283Y-36833423D01*
X214104372Y-36801038D01*
X214102793Y-36799487D01*
X212007196Y-34703888D01*
X212007195Y-34703887D01*
X211892457Y-34627222D01*
X211764982Y-34574421D01*
X211764972Y-34574418D01*
X211629646Y-34547500D01*
X211629644Y-34547500D01*
X211629643Y-34547500D01*
X191950994Y-34547500D01*
X191813006Y-34547500D01*
X191813004Y-34547500D01*
X191677677Y-34574418D01*
X191677667Y-34574421D01*
X191550192Y-34627222D01*
X191435454Y-34703887D01*
X191435453Y-34703888D01*
X190216161Y-35923181D01*
X190154838Y-35956666D01*
X190128480Y-35959500D01*
X189983389Y-35959500D01*
X189963337Y-35962676D01*
X189812302Y-35986597D01*
X189647552Y-36040128D01*
X189493211Y-36118768D01*
X189436212Y-36160181D01*
X189353072Y-36220586D01*
X189353070Y-36220588D01*
X189353069Y-36220588D01*
X189230588Y-36343069D01*
X189230588Y-36343070D01*
X189230586Y-36343072D01*
X189186859Y-36403256D01*
X189128768Y-36483211D01*
X189050128Y-36637552D01*
X188996597Y-36802302D01*
X188969500Y-36973389D01*
X188969500Y-37146610D01*
X188992684Y-37292993D01*
X188996598Y-37317701D01*
X189050127Y-37482445D01*
X189128768Y-37636788D01*
X189230586Y-37776928D01*
X189353072Y-37899414D01*
X189353078Y-37899418D01*
X189436023Y-37959683D01*
X189478689Y-38015013D01*
X189484667Y-38084626D01*
X189452061Y-38146421D01*
X189436023Y-38160317D01*
X189353078Y-38220581D01*
X189353069Y-38220588D01*
X189230588Y-38343069D01*
X189230588Y-38343070D01*
X189230586Y-38343072D01*
X189213848Y-38366110D01*
X189128768Y-38483211D01*
X189050128Y-38637552D01*
X188996597Y-38802302D01*
X188969500Y-38973389D01*
X188969500Y-39146610D01*
X188980144Y-39213818D01*
X188996598Y-39317701D01*
X189048934Y-39478774D01*
X189050128Y-39482447D01*
X189075816Y-39532863D01*
X189128768Y-39636788D01*
X189230586Y-39776928D01*
X189353072Y-39899414D01*
X189437346Y-39960643D01*
X189440523Y-39962951D01*
X189483188Y-40018282D01*
X189491254Y-40073004D01*
X189487261Y-40123708D01*
X190048554Y-40685000D01*
X190020630Y-40685000D01*
X189925255Y-40710556D01*
X189839745Y-40759925D01*
X189769925Y-40829745D01*
X189720556Y-40915255D01*
X189695000Y-41010630D01*
X189695000Y-41038552D01*
X189133709Y-40477261D01*
X189133708Y-40477261D01*
X189129203Y-40483463D01*
X189129193Y-40483480D01*
X189050592Y-40637740D01*
X188997085Y-40802415D01*
X188970000Y-40973428D01*
X188970000Y-41146571D01*
X188997085Y-41317584D01*
X189050592Y-41482259D01*
X189129196Y-41636525D01*
X189133709Y-41642736D01*
X189133709Y-41642737D01*
X189695000Y-41081446D01*
X189695000Y-41109370D01*
X189720556Y-41204745D01*
X189769925Y-41290255D01*
X189839745Y-41360075D01*
X189925255Y-41409444D01*
X190020630Y-41435000D01*
X190048553Y-41435000D01*
X189487261Y-41996289D01*
X189491253Y-42047003D01*
X189476889Y-42115381D01*
X189440521Y-42157049D01*
X189353078Y-42220581D01*
X189353069Y-42220588D01*
X189230588Y-42343069D01*
X189230588Y-42343070D01*
X189230586Y-42343072D01*
X189186859Y-42403256D01*
X189128768Y-42483211D01*
X189050128Y-42637552D01*
X188996597Y-42802302D01*
X188969500Y-42973389D01*
X188969500Y-43118480D01*
X188949815Y-43185519D01*
X188933181Y-43206161D01*
X188524890Y-43614451D01*
X188524887Y-43614454D01*
X188485550Y-43673328D01*
X188448223Y-43729191D01*
X188395421Y-43856667D01*
X188395418Y-43856677D01*
X188368500Y-43992004D01*
X188368500Y-43992007D01*
X188368500Y-45405634D01*
X188368500Y-45543622D01*
X188368500Y-45543624D01*
X188368499Y-45543624D01*
X182770500Y-45543624D01*
X182770500Y-34488676D01*
X182790185Y-34421637D01*
X182806819Y-34400995D01*
X182940995Y-34266819D01*
X183002318Y-34233334D01*
X183028676Y-34230500D01*
X247185892Y-34230500D01*
X247206403Y-34225004D01*
X247239298Y-34220782D01*
X250170000Y-34240000D01*
G37*
G04 #@! TD.AperFunction*
G04 #@! TA.AperFunction,Conductor*
G36*
X253721163Y-711885D02*
G01*
X253741805Y-728519D01*
X253875852Y-862566D01*
X253909337Y-923889D01*
X253912171Y-950308D01*
X253902427Y-20677956D01*
X253882709Y-20744986D01*
X253866108Y-20765576D01*
X249865486Y-24766200D01*
X249772302Y-24859383D01*
X249772300Y-24859386D01*
X249706408Y-24973512D01*
X249672300Y-25100808D01*
X249672300Y-32026000D01*
X249652615Y-32093039D01*
X249599811Y-32138794D01*
X249548300Y-32150000D01*
X247260066Y-32150000D01*
X247228059Y-32145798D01*
X247185892Y-32134500D01*
X247185773Y-32134500D01*
X247185657Y-32134469D01*
X247185653Y-32134468D01*
X247120757Y-32134500D01*
X247046594Y-32134500D01*
X247046046Y-32134534D01*
X237277359Y-32139201D01*
X237210310Y-32119548D01*
X237164530Y-32066766D01*
X237153300Y-32015201D01*
X237153300Y-25278947D01*
X237172985Y-25211908D01*
X237225789Y-25166153D01*
X237294947Y-25156209D01*
X237358503Y-25185234D01*
X237364981Y-25191266D01*
X238528825Y-26355111D01*
X238528826Y-26355112D01*
X238643564Y-26431777D01*
X238771039Y-26484578D01*
X238771044Y-26484580D01*
X238771048Y-26484580D01*
X238771049Y-26484581D01*
X238906375Y-26511500D01*
X238906378Y-26511500D01*
X244457996Y-26511500D01*
X244549040Y-26493389D01*
X244593328Y-26484580D01*
X244657069Y-26458177D01*
X244720807Y-26431777D01*
X244720808Y-26431776D01*
X244720811Y-26431775D01*
X244835543Y-26355114D01*
X245243837Y-25946818D01*
X245305160Y-25913334D01*
X245331518Y-25910500D01*
X245476610Y-25910500D01*
X245476611Y-25910500D01*
X245647701Y-25883402D01*
X245812445Y-25829873D01*
X245966788Y-25751232D01*
X246106928Y-25649414D01*
X246229414Y-25526928D01*
X246289682Y-25443975D01*
X246345012Y-25401311D01*
X246414626Y-25395332D01*
X246476421Y-25427938D01*
X246490315Y-25443973D01*
X246550586Y-25526928D01*
X246673072Y-25649414D01*
X246813212Y-25751232D01*
X246967555Y-25829873D01*
X247132299Y-25883402D01*
X247303389Y-25910500D01*
X247303390Y-25910500D01*
X247476610Y-25910500D01*
X247476611Y-25910500D01*
X247647701Y-25883402D01*
X247812445Y-25829873D01*
X247966788Y-25751232D01*
X248106928Y-25649414D01*
X248229414Y-25526928D01*
X248331232Y-25386788D01*
X248409873Y-25232445D01*
X248463402Y-25067701D01*
X248490500Y-24896611D01*
X248490500Y-24723389D01*
X248463402Y-24552299D01*
X248409873Y-24387555D01*
X248331232Y-24233212D01*
X248229414Y-24093072D01*
X248106928Y-23970586D01*
X248023975Y-23910317D01*
X247981311Y-23854988D01*
X247975332Y-23785374D01*
X248007938Y-23723579D01*
X248023976Y-23709682D01*
X248106928Y-23649414D01*
X248229414Y-23526928D01*
X248331232Y-23386788D01*
X248409873Y-23232445D01*
X248463402Y-23067701D01*
X248490500Y-22896611D01*
X248490500Y-22723389D01*
X248463402Y-22552299D01*
X248409873Y-22387555D01*
X248331232Y-22233212D01*
X248229414Y-22093072D01*
X248106928Y-21970586D01*
X247966788Y-21868768D01*
X247812445Y-21790127D01*
X247647701Y-21736598D01*
X247647699Y-21736597D01*
X247647698Y-21736597D01*
X247493664Y-21712201D01*
X247476611Y-21709500D01*
X247303389Y-21709500D01*
X247286336Y-21712201D01*
X247132302Y-21736597D01*
X246967552Y-21790128D01*
X246813211Y-21868768D01*
X246733256Y-21926859D01*
X246673072Y-21970586D01*
X246673070Y-21970588D01*
X246673069Y-21970588D01*
X246550588Y-22093069D01*
X246550581Y-22093078D01*
X246490317Y-22176023D01*
X246434987Y-22218689D01*
X246365374Y-22224667D01*
X246303579Y-22192061D01*
X246289683Y-22176023D01*
X246229418Y-22093078D01*
X246229414Y-22093072D01*
X246106928Y-21970586D01*
X245966788Y-21868768D01*
X245812445Y-21790127D01*
X245647701Y-21736598D01*
X245647699Y-21736597D01*
X245647698Y-21736597D01*
X245493664Y-21712201D01*
X245476611Y-21709500D01*
X245303389Y-21709500D01*
X245286336Y-21712201D01*
X245132302Y-21736597D01*
X244967552Y-21790128D01*
X244813211Y-21868768D01*
X244733256Y-21926859D01*
X244673072Y-21970586D01*
X244673070Y-21970588D01*
X244673069Y-21970588D01*
X244550588Y-22093069D01*
X244550581Y-22093078D01*
X244490317Y-22176023D01*
X244434987Y-22218689D01*
X244365374Y-22224667D01*
X244303579Y-22192061D01*
X244289683Y-22176023D01*
X244229418Y-22093078D01*
X244229414Y-22093072D01*
X244106928Y-21970586D01*
X243966788Y-21868768D01*
X243812445Y-21790127D01*
X243693990Y-21751638D01*
X243636315Y-21712201D01*
X243609117Y-21647843D01*
X243621032Y-21578996D01*
X243644625Y-21546030D01*
X245698838Y-19491819D01*
X245760161Y-19458334D01*
X245786519Y-19455500D01*
X249890664Y-19455500D01*
X249957703Y-19475185D01*
X249978345Y-19491819D01*
X250374397Y-19887871D01*
X250374416Y-19887888D01*
X250441321Y-19939863D01*
X250441322Y-19939864D01*
X250491455Y-19960629D01*
X250574290Y-19994940D01*
X250658363Y-20005500D01*
X251361633Y-20005501D01*
X251445709Y-19994940D01*
X251578676Y-19939863D01*
X251645595Y-19887879D01*
X251702274Y-19831198D01*
X251763595Y-19797714D01*
X251833287Y-19802698D01*
X251839597Y-19805471D01*
X251839610Y-19805442D01*
X251844108Y-19807304D01*
X251844111Y-19807305D01*
X251844119Y-19807309D01*
X252014103Y-19862540D01*
X252190634Y-19890500D01*
X252190635Y-19890500D01*
X252369365Y-19890500D01*
X252369366Y-19890500D01*
X252545897Y-19862540D01*
X252545900Y-19862539D01*
X252545901Y-19862539D01*
X252715878Y-19807310D01*
X252715878Y-19807309D01*
X252715881Y-19807309D01*
X252875132Y-19726167D01*
X253019728Y-19621111D01*
X253146111Y-19494728D01*
X253251167Y-19350132D01*
X253332309Y-19190881D01*
X253387540Y-19020897D01*
X253415500Y-18844366D01*
X253415500Y-18665634D01*
X253387540Y-18489103D01*
X253387539Y-18489099D01*
X253387539Y-18489098D01*
X253332310Y-18319121D01*
X253332308Y-18319118D01*
X253277162Y-18210886D01*
X253251167Y-18159868D01*
X253146111Y-18015272D01*
X253019728Y-17888889D01*
X252875132Y-17783833D01*
X252715881Y-17702691D01*
X252715878Y-17702689D01*
X252545899Y-17647460D01*
X252415557Y-17626816D01*
X252369366Y-17619500D01*
X252190634Y-17619500D01*
X252144443Y-17626816D01*
X252014101Y-17647460D01*
X252014098Y-17647460D01*
X251844120Y-17702690D01*
X251839621Y-17704554D01*
X251838968Y-17702977D01*
X251828600Y-17704922D01*
X251812605Y-17713034D01*
X251794975Y-17711231D01*
X251777556Y-17714499D01*
X251760938Y-17707750D01*
X251743098Y-17705926D01*
X251722111Y-17691981D01*
X251712821Y-17688209D01*
X251712651Y-17688074D01*
X251707203Y-17683730D01*
X251645591Y-17622118D01*
X251578677Y-17570136D01*
X251549659Y-17558116D01*
X251535974Y-17547205D01*
X251525547Y-17532353D01*
X251511421Y-17520969D01*
X251505891Y-17504354D01*
X251495828Y-17490020D01*
X251495086Y-17471889D01*
X251489357Y-17454675D01*
X251493687Y-17437707D01*
X251492972Y-17420209D01*
X251502149Y-17404556D01*
X251506637Y-17386976D01*
X251519565Y-17374852D01*
X251528312Y-17359936D01*
X251543907Y-17352028D01*
X251556981Y-17339767D01*
X251665405Y-17284524D01*
X251691524Y-17265546D01*
X251757328Y-17242065D01*
X251820703Y-17255378D01*
X251844119Y-17267309D01*
X252014103Y-17322540D01*
X252190634Y-17350500D01*
X252190635Y-17350500D01*
X252369365Y-17350500D01*
X252369366Y-17350500D01*
X252545897Y-17322540D01*
X252545900Y-17322539D01*
X252545901Y-17322539D01*
X252715878Y-17267310D01*
X252715878Y-17267309D01*
X252715881Y-17267309D01*
X252875132Y-17186167D01*
X253019728Y-17081111D01*
X253146111Y-16954728D01*
X253251167Y-16810132D01*
X253332309Y-16650881D01*
X253345255Y-16611037D01*
X253387539Y-16480901D01*
X253387539Y-16480900D01*
X253387540Y-16480897D01*
X253415500Y-16304366D01*
X253415500Y-16125634D01*
X253387540Y-15949103D01*
X253387539Y-15949099D01*
X253387539Y-15949098D01*
X253332310Y-15779121D01*
X253332308Y-15779118D01*
X253309817Y-15734975D01*
X253251167Y-15619868D01*
X253146111Y-15475272D01*
X253019728Y-15348889D01*
X252875132Y-15243833D01*
X252715881Y-15162691D01*
X252715878Y-15162689D01*
X252545899Y-15107460D01*
X252428209Y-15088820D01*
X252369366Y-15079500D01*
X252190634Y-15079500D01*
X252131790Y-15088820D01*
X252014101Y-15107460D01*
X252014098Y-15107460D01*
X251844121Y-15162689D01*
X251844111Y-15162693D01*
X251820702Y-15174621D01*
X251818000Y-15175128D01*
X251815921Y-15176930D01*
X251783858Y-15181539D01*
X251752033Y-15187516D01*
X251749484Y-15186481D01*
X251746762Y-15186873D01*
X251691524Y-15164452D01*
X251665407Y-15145477D01*
X251488787Y-15055485D01*
X251437990Y-15007511D01*
X251421195Y-14939690D01*
X251443732Y-14873555D01*
X251488787Y-14834515D01*
X251539267Y-14808793D01*
X251665405Y-14744524D01*
X251691524Y-14725546D01*
X251703382Y-14721315D01*
X251712900Y-14713068D01*
X251735665Y-14709794D01*
X251757328Y-14702065D01*
X251770372Y-14704805D01*
X251782059Y-14703125D01*
X251798825Y-14710782D01*
X251820703Y-14715378D01*
X251844119Y-14727309D01*
X252014103Y-14782540D01*
X252190634Y-14810500D01*
X252190635Y-14810500D01*
X252369365Y-14810500D01*
X252369366Y-14810500D01*
X252545897Y-14782540D01*
X252545900Y-14782539D01*
X252545901Y-14782539D01*
X252715878Y-14727310D01*
X252715878Y-14727309D01*
X252715881Y-14727309D01*
X252875132Y-14646167D01*
X253019728Y-14541111D01*
X253146111Y-14414728D01*
X253251167Y-14270132D01*
X253332309Y-14110881D01*
X253387540Y-13940897D01*
X253415500Y-13764366D01*
X253415500Y-13585634D01*
X253387540Y-13409103D01*
X253387539Y-13409099D01*
X253387539Y-13409098D01*
X253332310Y-13239121D01*
X253332308Y-13239118D01*
X253309817Y-13194975D01*
X253251167Y-13079868D01*
X253146111Y-12935272D01*
X253019728Y-12808889D01*
X252875132Y-12703833D01*
X252715881Y-12622691D01*
X252715878Y-12622689D01*
X252545899Y-12567460D01*
X252415557Y-12546816D01*
X252369366Y-12539500D01*
X252190634Y-12539500D01*
X252144443Y-12546816D01*
X252014101Y-12567460D01*
X252014098Y-12567460D01*
X251844121Y-12622689D01*
X251844111Y-12622693D01*
X251820702Y-12634621D01*
X251818000Y-12635128D01*
X251815921Y-12636930D01*
X251783858Y-12641539D01*
X251752033Y-12647516D01*
X251749484Y-12646481D01*
X251746762Y-12646873D01*
X251691524Y-12624452D01*
X251665407Y-12605477D01*
X251488787Y-12515485D01*
X251437990Y-12467511D01*
X251421195Y-12399690D01*
X251443732Y-12333555D01*
X251488787Y-12294515D01*
X251539267Y-12268793D01*
X251665405Y-12204524D01*
X251691524Y-12185546D01*
X251703382Y-12181315D01*
X251712900Y-12173068D01*
X251735665Y-12169794D01*
X251757328Y-12162065D01*
X251770372Y-12164805D01*
X251782059Y-12163125D01*
X251798825Y-12170782D01*
X251820703Y-12175378D01*
X251844119Y-12187309D01*
X252014103Y-12242540D01*
X252190634Y-12270500D01*
X252190635Y-12270500D01*
X252369365Y-12270500D01*
X252369366Y-12270500D01*
X252545897Y-12242540D01*
X252545900Y-12242539D01*
X252545901Y-12242539D01*
X252715878Y-12187310D01*
X252715878Y-12187309D01*
X252715881Y-12187309D01*
X252875132Y-12106167D01*
X253019728Y-12001111D01*
X253146111Y-11874728D01*
X253251167Y-11730132D01*
X253332309Y-11570881D01*
X253332310Y-11570878D01*
X253387539Y-11400901D01*
X253387539Y-11400900D01*
X253387540Y-11400897D01*
X253415500Y-11224366D01*
X253415500Y-11045634D01*
X253387540Y-10869103D01*
X253387539Y-10869099D01*
X253387539Y-10869098D01*
X253332310Y-10699121D01*
X253332308Y-10699118D01*
X253309817Y-10654975D01*
X253251167Y-10539868D01*
X253146111Y-10395272D01*
X253019728Y-10268889D01*
X252875132Y-10163833D01*
X252715881Y-10082691D01*
X252715878Y-10082689D01*
X252545899Y-10027460D01*
X252415557Y-10006816D01*
X252369366Y-9999500D01*
X252190634Y-9999500D01*
X252144443Y-10006816D01*
X252014101Y-10027460D01*
X252014098Y-10027460D01*
X251844121Y-10082689D01*
X251844111Y-10082693D01*
X251820702Y-10094621D01*
X251818000Y-10095128D01*
X251815921Y-10096930D01*
X251783858Y-10101539D01*
X251752033Y-10107516D01*
X251749484Y-10106481D01*
X251746762Y-10106873D01*
X251691524Y-10084452D01*
X251665407Y-10065477D01*
X251488787Y-9975485D01*
X251437990Y-9927511D01*
X251421195Y-9859690D01*
X251443732Y-9793555D01*
X251488787Y-9754515D01*
X251539267Y-9728793D01*
X251665405Y-9664524D01*
X251691524Y-9645546D01*
X251703382Y-9641315D01*
X251712900Y-9633068D01*
X251735665Y-9629794D01*
X251757328Y-9622065D01*
X251770372Y-9624805D01*
X251782059Y-9623125D01*
X251798825Y-9630782D01*
X251820703Y-9635378D01*
X251844119Y-9647309D01*
X252014103Y-9702540D01*
X252190634Y-9730500D01*
X252190635Y-9730500D01*
X252369365Y-9730500D01*
X252369366Y-9730500D01*
X252545897Y-9702540D01*
X252545900Y-9702539D01*
X252545901Y-9702539D01*
X252715878Y-9647310D01*
X252715878Y-9647309D01*
X252715881Y-9647309D01*
X252875132Y-9566167D01*
X253019728Y-9461111D01*
X253146111Y-9334728D01*
X253251167Y-9190132D01*
X253332309Y-9030881D01*
X253332310Y-9030878D01*
X253387539Y-8860901D01*
X253387539Y-8860900D01*
X253387540Y-8860897D01*
X253415500Y-8684366D01*
X253415500Y-8505634D01*
X253387540Y-8329103D01*
X253387539Y-8329099D01*
X253387539Y-8329098D01*
X253332310Y-8159121D01*
X253332308Y-8159118D01*
X253309817Y-8114975D01*
X253251167Y-7999868D01*
X253146111Y-7855272D01*
X253019728Y-7728889D01*
X252875132Y-7623833D01*
X252715881Y-7542691D01*
X252715878Y-7542689D01*
X252545899Y-7487460D01*
X252415557Y-7466816D01*
X252369366Y-7459500D01*
X252190634Y-7459500D01*
X252144443Y-7466816D01*
X252014101Y-7487460D01*
X252014098Y-7487460D01*
X251844121Y-7542689D01*
X251844111Y-7542693D01*
X251820702Y-7554621D01*
X251818000Y-7555128D01*
X251815921Y-7556930D01*
X251783858Y-7561539D01*
X251752033Y-7567516D01*
X251749484Y-7566481D01*
X251746762Y-7566873D01*
X251691524Y-7544452D01*
X251665407Y-7525477D01*
X251488787Y-7435485D01*
X251437990Y-7387511D01*
X251421195Y-7319690D01*
X251443732Y-7253555D01*
X251488787Y-7214515D01*
X251539267Y-7188793D01*
X251665405Y-7124524D01*
X251691524Y-7105546D01*
X251703382Y-7101315D01*
X251712900Y-7093068D01*
X251735665Y-7089794D01*
X251757328Y-7082065D01*
X251770372Y-7084805D01*
X251782059Y-7083125D01*
X251798825Y-7090782D01*
X251820703Y-7095378D01*
X251844119Y-7107309D01*
X252014103Y-7162540D01*
X252190634Y-7190500D01*
X252190635Y-7190500D01*
X252369365Y-7190500D01*
X252369366Y-7190500D01*
X252545897Y-7162540D01*
X252545900Y-7162539D01*
X252545901Y-7162539D01*
X252715878Y-7107310D01*
X252715878Y-7107309D01*
X252715881Y-7107309D01*
X252875132Y-7026167D01*
X253019728Y-6921111D01*
X253146111Y-6794728D01*
X253251167Y-6650132D01*
X253332309Y-6490881D01*
X253332310Y-6490878D01*
X253387539Y-6320901D01*
X253387539Y-6320900D01*
X253387540Y-6320897D01*
X253415500Y-6144366D01*
X253415500Y-5965634D01*
X253387540Y-5789103D01*
X253387539Y-5789099D01*
X253387539Y-5789098D01*
X253332310Y-5619121D01*
X253332308Y-5619118D01*
X253309817Y-5574975D01*
X253251167Y-5459868D01*
X253146111Y-5315272D01*
X253019728Y-5188889D01*
X252875132Y-5083833D01*
X252715881Y-5002691D01*
X252715878Y-5002689D01*
X252545899Y-4947460D01*
X252401837Y-4924643D01*
X252369366Y-4919500D01*
X252190634Y-4919500D01*
X252158163Y-4924643D01*
X252014101Y-4947460D01*
X252014098Y-4947460D01*
X251844121Y-5002689D01*
X251844111Y-5002693D01*
X251820702Y-5014621D01*
X251818000Y-5015128D01*
X251815921Y-5016930D01*
X251783858Y-5021539D01*
X251752033Y-5027516D01*
X251749484Y-5026481D01*
X251746762Y-5026873D01*
X251691524Y-5004452D01*
X251665407Y-4985477D01*
X251488787Y-4895485D01*
X251437990Y-4847511D01*
X251421195Y-4779690D01*
X251443732Y-4713555D01*
X251488787Y-4674515D01*
X251550807Y-4642914D01*
X251665405Y-4584524D01*
X251691524Y-4565546D01*
X251703382Y-4561315D01*
X251712900Y-4553068D01*
X251735665Y-4549794D01*
X251757328Y-4542065D01*
X251770372Y-4544805D01*
X251782059Y-4543125D01*
X251798825Y-4550782D01*
X251820703Y-4555378D01*
X251844119Y-4567309D01*
X252014103Y-4622540D01*
X252190634Y-4650500D01*
X252190635Y-4650500D01*
X252369365Y-4650500D01*
X252369366Y-4650500D01*
X252545897Y-4622540D01*
X252545900Y-4622539D01*
X252545901Y-4622539D01*
X252715878Y-4567310D01*
X252715878Y-4567309D01*
X252715881Y-4567309D01*
X252875132Y-4486167D01*
X253019728Y-4381111D01*
X253146111Y-4254728D01*
X253251167Y-4110132D01*
X253332309Y-3950881D01*
X253341418Y-3922846D01*
X253387539Y-3780901D01*
X253387539Y-3780900D01*
X253387540Y-3780897D01*
X253415500Y-3604366D01*
X253415500Y-3425634D01*
X253387540Y-3249103D01*
X253387539Y-3249099D01*
X253387539Y-3249098D01*
X253332310Y-3079121D01*
X253332308Y-3079118D01*
X253309817Y-3034975D01*
X253251167Y-2919868D01*
X253146111Y-2775272D01*
X253019728Y-2648889D01*
X252875132Y-2543833D01*
X252715881Y-2462691D01*
X252715878Y-2462689D01*
X252545899Y-2407460D01*
X252385958Y-2382128D01*
X252369366Y-2379500D01*
X252190634Y-2379500D01*
X252174042Y-2382128D01*
X252014101Y-2407460D01*
X252014098Y-2407460D01*
X251844121Y-2462689D01*
X251844111Y-2462693D01*
X251820702Y-2474621D01*
X251752033Y-2487516D01*
X251691524Y-2464452D01*
X251665409Y-2445478D01*
X251490029Y-2356117D01*
X251302826Y-2295290D01*
X251108422Y-2264500D01*
X251108417Y-2264500D01*
X250911583Y-2264500D01*
X250911578Y-2264500D01*
X250717173Y-2295290D01*
X250529970Y-2356117D01*
X250354594Y-2445476D01*
X250296732Y-2487516D01*
X250195354Y-2561172D01*
X250195352Y-2561174D01*
X250195351Y-2561174D01*
X250056174Y-2700351D01*
X250056174Y-2700352D01*
X250056172Y-2700354D01*
X250006485Y-2768741D01*
X249940476Y-2859594D01*
X249851117Y-3034970D01*
X249790290Y-3222173D01*
X249759500Y-3416577D01*
X249759500Y-3613422D01*
X249790290Y-3807826D01*
X249851117Y-3995029D01*
X249930376Y-4150583D01*
X249940476Y-4170405D01*
X250056172Y-4329646D01*
X250195354Y-4468828D01*
X250354595Y-4584524D01*
X250367694Y-4591198D01*
X250531213Y-4674515D01*
X250582009Y-4722489D01*
X250598804Y-4790310D01*
X250576267Y-4856445D01*
X250531213Y-4895485D01*
X250354594Y-4985476D01*
X250296158Y-5027933D01*
X250195354Y-5101172D01*
X250195352Y-5101174D01*
X250195351Y-5101174D01*
X250056174Y-5240351D01*
X250056174Y-5240352D01*
X250056172Y-5240354D01*
X250006485Y-5308741D01*
X249940476Y-5399594D01*
X249851117Y-5574970D01*
X249790290Y-5762173D01*
X249759500Y-5956577D01*
X249759500Y-6153422D01*
X249790290Y-6347826D01*
X249851117Y-6535029D01*
X249940476Y-6710405D01*
X250056172Y-6869646D01*
X250195354Y-7008828D01*
X250354595Y-7124524D01*
X250477992Y-7187397D01*
X250531213Y-7214515D01*
X250582009Y-7262489D01*
X250598804Y-7330310D01*
X250576267Y-7396445D01*
X250531213Y-7435485D01*
X250354594Y-7525476D01*
X250296158Y-7567933D01*
X250195354Y-7641172D01*
X250195352Y-7641174D01*
X250195351Y-7641174D01*
X250056174Y-7780351D01*
X250056174Y-7780352D01*
X250056172Y-7780354D01*
X250006485Y-7848741D01*
X249940476Y-7939594D01*
X249851117Y-8114970D01*
X249790290Y-8302173D01*
X249759500Y-8496577D01*
X249759500Y-8693422D01*
X249790290Y-8887826D01*
X249851117Y-9075029D01*
X249940476Y-9250405D01*
X250056172Y-9409646D01*
X250195354Y-9548828D01*
X250354595Y-9664524D01*
X250477992Y-9727397D01*
X250531213Y-9754515D01*
X250582009Y-9802489D01*
X250598804Y-9870310D01*
X250576267Y-9936445D01*
X250531213Y-9975485D01*
X250354594Y-10065476D01*
X250296158Y-10107933D01*
X250195354Y-10181172D01*
X250195352Y-10181174D01*
X250195351Y-10181174D01*
X250056174Y-10320351D01*
X250056174Y-10320352D01*
X250056172Y-10320354D01*
X250006485Y-10388741D01*
X249940476Y-10479594D01*
X249851117Y-10654970D01*
X249790290Y-10842173D01*
X249759500Y-11036577D01*
X249759500Y-11233422D01*
X249790290Y-11427826D01*
X249851117Y-11615029D01*
X249940476Y-11790405D01*
X250056172Y-11949646D01*
X250195354Y-12088828D01*
X250354595Y-12204524D01*
X250477992Y-12267397D01*
X250531213Y-12294515D01*
X250582009Y-12342489D01*
X250598804Y-12410310D01*
X250576267Y-12476445D01*
X250531213Y-12515485D01*
X250354594Y-12605476D01*
X250296158Y-12647933D01*
X250195354Y-12721172D01*
X250195352Y-12721174D01*
X250195351Y-12721174D01*
X250056174Y-12860351D01*
X250056174Y-12860352D01*
X250056172Y-12860354D01*
X250010377Y-12923386D01*
X249955047Y-12966051D01*
X249910059Y-12974500D01*
X248456004Y-12974500D01*
X248320677Y-13001418D01*
X248320667Y-13001421D01*
X248193192Y-13054222D01*
X248078454Y-13130887D01*
X239536160Y-21673181D01*
X239474837Y-21706666D01*
X239448479Y-21709500D01*
X238989998Y-21709500D01*
X238989980Y-21709501D01*
X238887203Y-21720000D01*
X238887200Y-21720001D01*
X238720668Y-21775185D01*
X238720663Y-21775187D01*
X238571342Y-21867289D01*
X238447289Y-21991342D01*
X238355187Y-22140663D01*
X238355186Y-22140666D01*
X238300001Y-22307203D01*
X238300001Y-22307204D01*
X238300000Y-22307204D01*
X238289500Y-22409983D01*
X238289500Y-22419481D01*
X238269815Y-22486520D01*
X238217011Y-22532275D01*
X238147853Y-22542219D01*
X238084297Y-22513194D01*
X238077819Y-22507162D01*
X237657819Y-22087162D01*
X237624334Y-22025839D01*
X237621500Y-21999481D01*
X237621500Y-14757004D01*
X237594581Y-14621677D01*
X237594580Y-14621676D01*
X237594580Y-14621672D01*
X237541775Y-14494189D01*
X237474753Y-14393883D01*
X237465114Y-14379457D01*
X237465113Y-14379456D01*
X237465111Y-14379453D01*
X237465109Y-14379451D01*
X237043103Y-13957446D01*
X237009618Y-13896123D01*
X237008311Y-13850372D01*
X237020500Y-13773417D01*
X237020500Y-13576583D01*
X237020500Y-13576577D01*
X236989709Y-13382173D01*
X236928882Y-13194970D01*
X236870234Y-13079867D01*
X236839524Y-13019595D01*
X236723828Y-12860354D01*
X236584646Y-12721172D01*
X236481843Y-12646481D01*
X236425403Y-12605474D01*
X236248787Y-12515485D01*
X236197990Y-12467511D01*
X236181195Y-12399690D01*
X236203732Y-12333555D01*
X236248787Y-12294515D01*
X236425403Y-12204525D01*
X236425402Y-12204525D01*
X236425405Y-12204524D01*
X236584646Y-12088828D01*
X236723828Y-11949646D01*
X236839524Y-11790405D01*
X236928884Y-11615025D01*
X236989709Y-11427826D01*
X237020500Y-11233422D01*
X237020500Y-11036577D01*
X236989709Y-10842173D01*
X236928882Y-10654970D01*
X236839523Y-10479594D01*
X236723828Y-10320354D01*
X236584646Y-10181172D01*
X236481843Y-10106481D01*
X236425403Y-10065474D01*
X236248787Y-9975485D01*
X236197990Y-9927511D01*
X236181195Y-9859690D01*
X236203732Y-9793555D01*
X236248787Y-9754515D01*
X236425403Y-9664525D01*
X236425402Y-9664525D01*
X236425405Y-9664524D01*
X236584646Y-9548828D01*
X236723828Y-9409646D01*
X236839524Y-9250405D01*
X236928884Y-9075025D01*
X236989709Y-8887826D01*
X237020500Y-8693422D01*
X237020500Y-8496577D01*
X236989709Y-8302173D01*
X236928882Y-8114970D01*
X236839523Y-7939594D01*
X236723828Y-7780354D01*
X236584646Y-7641172D01*
X236481843Y-7566481D01*
X236425403Y-7525474D01*
X236248787Y-7435485D01*
X236197990Y-7387511D01*
X236181195Y-7319690D01*
X236203732Y-7253555D01*
X236248787Y-7214515D01*
X236425403Y-7124525D01*
X236425402Y-7124525D01*
X236425405Y-7124524D01*
X236584646Y-7008828D01*
X236723828Y-6869646D01*
X236839524Y-6710405D01*
X236928884Y-6535025D01*
X236989709Y-6347826D01*
X237020500Y-6153422D01*
X237020500Y-5956577D01*
X236989709Y-5762173D01*
X236928882Y-5574970D01*
X236839523Y-5399594D01*
X236723828Y-5240354D01*
X236584646Y-5101172D01*
X236425405Y-4985476D01*
X236316982Y-4930232D01*
X236266186Y-4882258D01*
X236249391Y-4814437D01*
X236271928Y-4748302D01*
X236325826Y-4705185D01*
X236338676Y-4699863D01*
X236405595Y-4647879D01*
X236902882Y-4150591D01*
X236954864Y-4083677D01*
X237009940Y-3950710D01*
X237020500Y-3866637D01*
X237020501Y-3163367D01*
X237009940Y-3079291D01*
X236954863Y-2946324D01*
X236902879Y-2879405D01*
X236672363Y-2648889D01*
X236405602Y-2382128D01*
X236405583Y-2382111D01*
X236338678Y-2330136D01*
X236338677Y-2330135D01*
X236205713Y-2275061D01*
X236205711Y-2275060D01*
X236205710Y-2275060D01*
X236205709Y-2275059D01*
X236205706Y-2275059D01*
X236121640Y-2264500D01*
X236121633Y-2264499D01*
X235418365Y-2264499D01*
X235334293Y-2275059D01*
X235334289Y-2275060D01*
X235201324Y-2330136D01*
X235134406Y-2382120D01*
X235077725Y-2438801D01*
X235016401Y-2472285D01*
X234946709Y-2467300D01*
X234940396Y-2464526D01*
X234940384Y-2464556D01*
X234935878Y-2462689D01*
X234765899Y-2407460D01*
X234605958Y-2382128D01*
X234589366Y-2379500D01*
X234410634Y-2379500D01*
X234394042Y-2382128D01*
X234234101Y-2407460D01*
X234234098Y-2407460D01*
X234064121Y-2462689D01*
X234064118Y-2462691D01*
X233904867Y-2543833D01*
X233760270Y-2648890D01*
X233633890Y-2775270D01*
X233528833Y-2919867D01*
X233447691Y-3079118D01*
X233447689Y-3079121D01*
X233392460Y-3249098D01*
X233392460Y-3249101D01*
X233364500Y-3425634D01*
X233364500Y-3608480D01*
X233344815Y-3675519D01*
X233328181Y-3696161D01*
X233134981Y-3889361D01*
X233073658Y-3922846D01*
X233003966Y-3917862D01*
X232948033Y-3875990D01*
X232923616Y-3810526D01*
X232923300Y-3801680D01*
X232923300Y-950376D01*
X232931944Y-920935D01*
X232938468Y-890949D01*
X232942222Y-885933D01*
X232942985Y-883337D01*
X232959619Y-862695D01*
X233093795Y-728519D01*
X233155118Y-695034D01*
X233181476Y-692200D01*
X253654124Y-692200D01*
X253721163Y-711885D01*
G37*
G04 #@! TD.AperFunction*
G04 #@! TA.AperFunction,Conductor*
G36*
X242476421Y-23427938D02*
G01*
X242490315Y-23443973D01*
X242550586Y-23526928D01*
X242673072Y-23649414D01*
X242673078Y-23649418D01*
X242760523Y-23712951D01*
X242803188Y-23768282D01*
X242811254Y-23823004D01*
X242807261Y-23873708D01*
X243368554Y-24435000D01*
X243340630Y-24435000D01*
X243245255Y-24460556D01*
X243159745Y-24509925D01*
X243089925Y-24579745D01*
X243040556Y-24665255D01*
X243015000Y-24760630D01*
X243015000Y-24788553D01*
X242453708Y-24227261D01*
X242403004Y-24231254D01*
X242334626Y-24216893D01*
X242292951Y-24180523D01*
X242229418Y-24093078D01*
X242229414Y-24093072D01*
X242106928Y-23970586D01*
X242023975Y-23910317D01*
X241981311Y-23854988D01*
X241975332Y-23785374D01*
X242007938Y-23723579D01*
X242023976Y-23709682D01*
X242106928Y-23649414D01*
X242229414Y-23526928D01*
X242289682Y-23443975D01*
X242345012Y-23401311D01*
X242414626Y-23395332D01*
X242476421Y-23427938D01*
G37*
G04 #@! TD.AperFunction*
G04 #@! TA.AperFunction,Conductor*
G36*
X244476421Y-23427938D02*
G01*
X244490315Y-23443973D01*
X244550586Y-23526928D01*
X244673072Y-23649414D01*
X244673075Y-23649416D01*
X244673078Y-23649418D01*
X244756023Y-23709683D01*
X244798689Y-23765013D01*
X244804667Y-23834626D01*
X244772061Y-23896421D01*
X244756023Y-23910317D01*
X244673078Y-23970581D01*
X244673069Y-23970588D01*
X244550588Y-24093069D01*
X244550581Y-24093078D01*
X244487049Y-24180521D01*
X244431719Y-24223187D01*
X244377003Y-24231253D01*
X244326289Y-24227261D01*
X243765000Y-24788551D01*
X243765000Y-24760630D01*
X243739444Y-24665255D01*
X243690075Y-24579745D01*
X243620255Y-24509925D01*
X243534745Y-24460556D01*
X243439370Y-24435000D01*
X243411447Y-24435000D01*
X243972736Y-23873710D01*
X243968745Y-23822999D01*
X243983108Y-23754622D01*
X244019478Y-23712950D01*
X244023976Y-23709682D01*
X244106928Y-23649414D01*
X244229414Y-23526928D01*
X244289682Y-23443975D01*
X244345012Y-23401311D01*
X244414626Y-23395332D01*
X244476421Y-23427938D01*
G37*
G04 #@! TD.AperFunction*
G04 #@! TA.AperFunction,Conductor*
G36*
X235088473Y-19805546D02*
G01*
X235112302Y-19822858D01*
X235114595Y-19824524D01*
X235224021Y-19880279D01*
X235289970Y-19913882D01*
X235289972Y-19913882D01*
X235289975Y-19913884D01*
X235369930Y-19939863D01*
X235477173Y-19974709D01*
X235671578Y-20005500D01*
X235671583Y-20005500D01*
X235868422Y-20005500D01*
X236047982Y-19977060D01*
X236062826Y-19974709D01*
X236062834Y-19974706D01*
X236067542Y-19973576D01*
X236137325Y-19977060D01*
X236194146Y-20017719D01*
X236219965Y-20082643D01*
X236220500Y-20094147D01*
X236220500Y-21766109D01*
X236200815Y-21833148D01*
X236148011Y-21878903D01*
X236078853Y-21888847D01*
X236015297Y-21859822D01*
X236008819Y-21853790D01*
X234246673Y-20091644D01*
X234213188Y-20030321D01*
X234218172Y-19960629D01*
X234260044Y-19904696D01*
X234325508Y-19880279D01*
X234353745Y-19881489D01*
X234410634Y-19890500D01*
X234410636Y-19890500D01*
X234589365Y-19890500D01*
X234589366Y-19890500D01*
X234765897Y-19862540D01*
X234935881Y-19807309D01*
X234959293Y-19795379D01*
X235027960Y-19782483D01*
X235088473Y-19805546D01*
G37*
G04 #@! TD.AperFunction*
G04 #@! TA.AperFunction,Conductor*
G36*
X249915308Y-14377041D02*
G01*
X249920670Y-14375955D01*
X249948474Y-14386780D01*
X249977098Y-14395185D01*
X249982032Y-14399845D01*
X249985779Y-14401304D01*
X250010375Y-14426612D01*
X250056172Y-14489646D01*
X250195354Y-14628828D01*
X250354595Y-14744524D01*
X250477992Y-14807397D01*
X250531213Y-14834515D01*
X250582009Y-14882489D01*
X250598804Y-14950310D01*
X250576267Y-15016445D01*
X250531213Y-15055485D01*
X250354594Y-15145476D01*
X250297617Y-15186873D01*
X250195354Y-15261172D01*
X250195352Y-15261174D01*
X250195351Y-15261174D01*
X250056174Y-15400351D01*
X250056174Y-15400352D01*
X250056172Y-15400354D01*
X250006485Y-15468741D01*
X249940476Y-15559594D01*
X249851117Y-15734970D01*
X249790290Y-15922173D01*
X249759500Y-16116577D01*
X249759500Y-16313422D01*
X249790290Y-16507826D01*
X249851117Y-16695029D01*
X249940476Y-16870405D01*
X250056172Y-17029646D01*
X250195354Y-17168828D01*
X250295926Y-17241898D01*
X250354596Y-17284525D01*
X250463016Y-17339767D01*
X250513813Y-17387741D01*
X250530608Y-17455562D01*
X250508071Y-17521697D01*
X250454178Y-17564812D01*
X250441324Y-17570136D01*
X250374405Y-17622121D01*
X250374399Y-17622126D01*
X249978346Y-18018181D01*
X249917023Y-18051666D01*
X249890665Y-18054500D01*
X245435519Y-18054500D01*
X245368480Y-18034815D01*
X245322725Y-17982011D01*
X245312781Y-17912853D01*
X245341806Y-17849297D01*
X245347838Y-17842819D01*
X248778838Y-14411819D01*
X248840161Y-14378334D01*
X248866519Y-14375500D01*
X249910059Y-14375500D01*
X249915308Y-14377041D01*
G37*
G04 #@! TD.AperFunction*
G04 #@! TA.AperFunction,Conductor*
G36*
X234750000Y-17324552D02*
G01*
X234765778Y-17322053D01*
X234935691Y-17266844D01*
X234959336Y-17254796D01*
X234962054Y-17254285D01*
X234964145Y-17252475D01*
X234996183Y-17247874D01*
X235028005Y-17241898D01*
X235030568Y-17242938D01*
X235033306Y-17242545D01*
X235088522Y-17264962D01*
X235114855Y-17284095D01*
X235291764Y-17374234D01*
X235342560Y-17422208D01*
X235359355Y-17490029D01*
X235336818Y-17556164D01*
X235291764Y-17595204D01*
X235114595Y-17685475D01*
X235088474Y-17704454D01*
X235076603Y-17708689D01*
X235067079Y-17716939D01*
X235044323Y-17720206D01*
X235022667Y-17727933D01*
X235009610Y-17725190D01*
X234997918Y-17726869D01*
X234981165Y-17719214D01*
X234959295Y-17714620D01*
X234935881Y-17702690D01*
X234765900Y-17647460D01*
X234633498Y-17626490D01*
X234589366Y-17619500D01*
X234410634Y-17619500D01*
X234315856Y-17634511D01*
X234307897Y-17635772D01*
X234289355Y-17633375D01*
X234270853Y-17636036D01*
X234255424Y-17628990D01*
X234238603Y-17626816D01*
X234224302Y-17614776D01*
X234207297Y-17607011D01*
X234198126Y-17592741D01*
X234185152Y-17581819D01*
X234179630Y-17563960D01*
X234169523Y-17548233D01*
X234164964Y-17516527D01*
X234164513Y-17515068D01*
X234164500Y-17513298D01*
X234164500Y-17454741D01*
X234184185Y-17387702D01*
X234207968Y-17360451D01*
X234250000Y-17324551D01*
X234250000Y-16459975D01*
X234285095Y-16495070D01*
X234364905Y-16541148D01*
X234453922Y-16565000D01*
X234546078Y-16565000D01*
X234635095Y-16541148D01*
X234714905Y-16495070D01*
X234750000Y-16459975D01*
X234750000Y-17324552D01*
G37*
G04 #@! TD.AperFunction*
G04 #@! TA.AperFunction,Conductor*
G36*
X235030618Y-14703496D02*
G01*
X235033211Y-14703123D01*
X235051284Y-14711372D01*
X235088473Y-14725546D01*
X235114593Y-14744523D01*
X235291763Y-14834795D01*
X235342560Y-14882769D01*
X235359355Y-14950590D01*
X235336818Y-15016725D01*
X235291764Y-15055765D01*
X235114855Y-15145905D01*
X235114854Y-15145905D01*
X235088520Y-15165039D01*
X235076672Y-15169266D01*
X235067169Y-15177504D01*
X235044391Y-15180783D01*
X235022713Y-15188518D01*
X235010460Y-15185668D01*
X234998012Y-15187461D01*
X234959341Y-15175205D01*
X234935686Y-15163152D01*
X234765783Y-15107948D01*
X234765775Y-15107946D01*
X234750000Y-15105446D01*
X234750000Y-15970025D01*
X234714905Y-15934930D01*
X234635095Y-15888852D01*
X234546078Y-15865000D01*
X234453922Y-15865000D01*
X234364905Y-15888852D01*
X234285095Y-15934930D01*
X234250000Y-15970025D01*
X234250000Y-15105446D01*
X234207970Y-15069550D01*
X234207718Y-15069164D01*
X234207297Y-15068972D01*
X234188606Y-15039889D01*
X234169776Y-15011044D01*
X234169688Y-15010451D01*
X234169523Y-15010194D01*
X234164500Y-14975259D01*
X234164500Y-14916701D01*
X234184185Y-14849662D01*
X234236989Y-14803907D01*
X234306147Y-14793963D01*
X234307886Y-14794226D01*
X234410634Y-14810500D01*
X234410635Y-14810500D01*
X234589365Y-14810500D01*
X234589366Y-14810500D01*
X234765897Y-14782540D01*
X234935881Y-14727309D01*
X234959293Y-14715379D01*
X234961984Y-14714874D01*
X234964054Y-14713080D01*
X234996114Y-14708464D01*
X235027960Y-14702483D01*
X235030618Y-14703496D01*
G37*
G04 #@! TD.AperFunction*
M02*
