G04 #@! TF.GenerationSoftware,KiCad,Pcbnew,9.0.6*
G04 #@! TF.CreationDate,2026-03-05T16:11:11+09:00*
G04 #@! TF.ProjectId,PowerMeter2026-nRF,506f7765-724d-4657-9465-72323032362d,rev?*
G04 #@! TF.SameCoordinates,Original*
G04 #@! TF.FileFunction,Legend,Top*
G04 #@! TF.FilePolarity,Positive*
%FSLAX46Y46*%
G04 Gerber Fmt 4.6, Leading zero omitted, Abs format (unit mm)*
G04 Created by KiCad (PCBNEW 9.0.6) date 2026-03-05 16:11:11*
%MOMM*%
%LPD*%
G01*
G04 APERTURE LIST*
G04 Aperture macros list*
%AMRoundRect*
0 Rectangle with rounded corners*
0 $1 Rounding radius*
0 $2 $3 $4 $5 $6 $7 $8 $9 X,Y pos of 4 corners*
0 Add a 4 corners polygon primitive as box body*
4,1,4,$2,$3,$4,$5,$6,$7,$8,$9,$2,$3,0*
0 Add four circle primitives for the rounded corners*
1,1,$1+$1,$2,$3*
1,1,$1+$1,$4,$5*
1,1,$1+$1,$6,$7*
1,1,$1+$1,$8,$9*
0 Add four rect primitives between the rounded corners*
20,1,$1+$1,$2,$3,$4,$5,0*
20,1,$1+$1,$4,$5,$6,$7,0*
20,1,$1+$1,$6,$7,$8,$9,0*
20,1,$1+$1,$8,$9,$2,$3,0*%
%AMFreePoly0*
4,1,17,0.337601,0.776941,0.776941,0.337601,0.788100,0.310660,0.788100,-0.310660,0.776941,-0.337601,0.337601,-0.776941,0.310660,-0.788100,-0.310660,-0.788100,-0.337601,-0.776941,-0.776941,-0.337601,-0.788100,-0.310660,-0.788100,0.310660,-0.776941,0.337601,-0.337601,0.776941,-0.310660,0.788100,0.310660,0.788100,0.337601,0.776941,0.337601,0.776941,$1*%
G04 Aperture macros list end*
%ADD10C,0.150000*%
%ADD11C,0.100000*%
%ADD12C,0.120000*%
%ADD13C,0.002540*%
%ADD14C,0.127000*%
%ADD15C,0.500000*%
%ADD16R,1.700000X1.700000*%
%ADD17C,1.700000*%
%ADD18RoundRect,0.250000X-0.350000X-0.350000X0.350000X-0.350000X0.350000X0.350000X-0.350000X0.350000X0*%
%ADD19C,1.200000*%
%ADD20C,1.576200*%
%ADD21C,1.346200*%
%ADD22FreePoly0,180.000000*%
%ADD23FreePoly0,0.000000*%
%ADD24O,1.700000X1.700000*%
%ADD25RoundRect,0.250000X-0.350000X0.350000X-0.350000X-0.350000X0.350000X-0.350000X0.350000X0.350000X0*%
%ADD26C,1.524000*%
G04 APERTURE END LIST*
D10*
X195386666Y-46554819D02*
X195386666Y-47269104D01*
X195386666Y-47269104D02*
X195339047Y-47411961D01*
X195339047Y-47411961D02*
X195243809Y-47507200D01*
X195243809Y-47507200D02*
X195100952Y-47554819D01*
X195100952Y-47554819D02*
X195005714Y-47554819D01*
X196339047Y-46554819D02*
X195862857Y-46554819D01*
X195862857Y-46554819D02*
X195815238Y-47031009D01*
X195815238Y-47031009D02*
X195862857Y-46983390D01*
X195862857Y-46983390D02*
X195958095Y-46935771D01*
X195958095Y-46935771D02*
X196196190Y-46935771D01*
X196196190Y-46935771D02*
X196291428Y-46983390D01*
X196291428Y-46983390D02*
X196339047Y-47031009D01*
X196339047Y-47031009D02*
X196386666Y-47126247D01*
X196386666Y-47126247D02*
X196386666Y-47364342D01*
X196386666Y-47364342D02*
X196339047Y-47459580D01*
X196339047Y-47459580D02*
X196291428Y-47507200D01*
X196291428Y-47507200D02*
X196196190Y-47554819D01*
X196196190Y-47554819D02*
X195958095Y-47554819D01*
X195958095Y-47554819D02*
X195862857Y-47507200D01*
X195862857Y-47507200D02*
X195815238Y-47459580D01*
X243056666Y-20464819D02*
X243056666Y-21179104D01*
X243056666Y-21179104D02*
X243009047Y-21321961D01*
X243009047Y-21321961D02*
X242913809Y-21417200D01*
X242913809Y-21417200D02*
X242770952Y-21464819D01*
X242770952Y-21464819D02*
X242675714Y-21464819D01*
X243961428Y-20798152D02*
X243961428Y-21464819D01*
X243723333Y-20417200D02*
X243485238Y-21131485D01*
X243485238Y-21131485D02*
X244104285Y-21131485D01*
D11*
X245155380Y-10754795D02*
X244345857Y-10754795D01*
X244345857Y-10754795D02*
X244250619Y-10802414D01*
X244250619Y-10802414D02*
X244203000Y-10850033D01*
X244203000Y-10850033D02*
X244155380Y-10945271D01*
X244155380Y-10945271D02*
X244155380Y-11135747D01*
X244155380Y-11135747D02*
X244203000Y-11230985D01*
X244203000Y-11230985D02*
X244250619Y-11278604D01*
X244250619Y-11278604D02*
X244345857Y-11326223D01*
X244345857Y-11326223D02*
X245155380Y-11326223D01*
X245060142Y-11754795D02*
X245107761Y-11802414D01*
X245107761Y-11802414D02*
X245155380Y-11897652D01*
X245155380Y-11897652D02*
X245155380Y-12135747D01*
X245155380Y-12135747D02*
X245107761Y-12230985D01*
X245107761Y-12230985D02*
X245060142Y-12278604D01*
X245060142Y-12278604D02*
X244964904Y-12326223D01*
X244964904Y-12326223D02*
X244869666Y-12326223D01*
X244869666Y-12326223D02*
X244726809Y-12278604D01*
X244726809Y-12278604D02*
X244155380Y-11707176D01*
X244155380Y-11707176D02*
X244155380Y-12326223D01*
X249666667Y-40809800D02*
X249809524Y-40857419D01*
X249809524Y-40857419D02*
X250047619Y-40857419D01*
X250047619Y-40857419D02*
X250142857Y-40809800D01*
X250142857Y-40809800D02*
X250190476Y-40762180D01*
X250190476Y-40762180D02*
X250238095Y-40666942D01*
X250238095Y-40666942D02*
X250238095Y-40571704D01*
X250238095Y-40571704D02*
X250190476Y-40476466D01*
X250190476Y-40476466D02*
X250142857Y-40428847D01*
X250142857Y-40428847D02*
X250047619Y-40381228D01*
X250047619Y-40381228D02*
X249857143Y-40333609D01*
X249857143Y-40333609D02*
X249761905Y-40285990D01*
X249761905Y-40285990D02*
X249714286Y-40238371D01*
X249714286Y-40238371D02*
X249666667Y-40143133D01*
X249666667Y-40143133D02*
X249666667Y-40047895D01*
X249666667Y-40047895D02*
X249714286Y-39952657D01*
X249714286Y-39952657D02*
X249761905Y-39905038D01*
X249761905Y-39905038D02*
X249857143Y-39857419D01*
X249857143Y-39857419D02*
X250095238Y-39857419D01*
X250095238Y-39857419D02*
X250238095Y-39905038D01*
X250571429Y-39857419D02*
X250809524Y-40857419D01*
X250809524Y-40857419D02*
X251000000Y-40143133D01*
X251000000Y-40143133D02*
X251190476Y-40857419D01*
X251190476Y-40857419D02*
X251428572Y-39857419D01*
X251761905Y-39952657D02*
X251809524Y-39905038D01*
X251809524Y-39905038D02*
X251904762Y-39857419D01*
X251904762Y-39857419D02*
X252142857Y-39857419D01*
X252142857Y-39857419D02*
X252238095Y-39905038D01*
X252238095Y-39905038D02*
X252285714Y-39952657D01*
X252285714Y-39952657D02*
X252333333Y-40047895D01*
X252333333Y-40047895D02*
X252333333Y-40143133D01*
X252333333Y-40143133D02*
X252285714Y-40285990D01*
X252285714Y-40285990D02*
X251714286Y-40857419D01*
X251714286Y-40857419D02*
X252333333Y-40857419D01*
D10*
X193324819Y-41393333D02*
X194039104Y-41393333D01*
X194039104Y-41393333D02*
X194181961Y-41440952D01*
X194181961Y-41440952D02*
X194277200Y-41536190D01*
X194277200Y-41536190D02*
X194324819Y-41679047D01*
X194324819Y-41679047D02*
X194324819Y-41774285D01*
X193324819Y-41012380D02*
X193324819Y-40393333D01*
X193324819Y-40393333D02*
X193705771Y-40726666D01*
X193705771Y-40726666D02*
X193705771Y-40583809D01*
X193705771Y-40583809D02*
X193753390Y-40488571D01*
X193753390Y-40488571D02*
X193801009Y-40440952D01*
X193801009Y-40440952D02*
X193896247Y-40393333D01*
X193896247Y-40393333D02*
X194134342Y-40393333D01*
X194134342Y-40393333D02*
X194229580Y-40440952D01*
X194229580Y-40440952D02*
X194277200Y-40488571D01*
X194277200Y-40488571D02*
X194324819Y-40583809D01*
X194324819Y-40583809D02*
X194324819Y-40869523D01*
X194324819Y-40869523D02*
X194277200Y-40964761D01*
X194277200Y-40964761D02*
X194229580Y-41012380D01*
D12*
X194340000Y-43450000D02*
X194340000Y-35720000D01*
X197100000Y-35720000D02*
X194340000Y-35720000D01*
X197100000Y-43450000D02*
X194340000Y-43450000D01*
X197100000Y-43450000D02*
X197100000Y-35720000D01*
X197100000Y-44720000D02*
X197100000Y-46100000D01*
X197100000Y-46100000D02*
X195720000Y-46100000D01*
X237030000Y-21900000D02*
X237030000Y-24400000D01*
X237330000Y-22200000D02*
X237330000Y-31920000D01*
X237330000Y-31920000D02*
X243390000Y-31920000D01*
X238550000Y-22200000D02*
X237330000Y-22200000D01*
X238550000Y-25200000D02*
X238550000Y-22200000D01*
X240390000Y-21900000D02*
X237030000Y-21900000D01*
X240390000Y-22150000D02*
X240390000Y-21900000D01*
X248230000Y-22200000D02*
X249450000Y-22200000D01*
X248230000Y-25200000D02*
X248230000Y-22200000D01*
X249450000Y-22200000D02*
X249450000Y-31920000D01*
X249450000Y-31920000D02*
X243390000Y-31920000D01*
D13*
X234500000Y-2562500D02*
X234500000Y-19707500D01*
X236405000Y-21612500D02*
X250375000Y-21612500D01*
D14*
X238900570Y-15779800D02*
X247900570Y-15779800D01*
X238900570Y-23129800D02*
X238900570Y-15779800D01*
X247900570Y-15779800D02*
X247900570Y-23129800D01*
X247900570Y-23129800D02*
X238900570Y-23129800D01*
D13*
X250375000Y-657500D02*
X236405000Y-657500D01*
X252280000Y-2562500D02*
X252280000Y-19707500D01*
X234500000Y-2562500D02*
G75*
G02*
X236405000Y-657500I1905001J-1D01*
G01*
X236405000Y-21612500D02*
G75*
G02*
X234500000Y-19707500I0J1905000D01*
G01*
X250375000Y-657500D02*
G75*
G02*
X252280000Y-2562500I-1J-1905001D01*
G01*
X252280000Y-19707500D02*
G75*
G02*
X250375000Y-21612500I-1905000J0D01*
G01*
D12*
X249570000Y-37220000D02*
X250900000Y-37220000D01*
X249570000Y-38550000D02*
X249570000Y-37220000D01*
X249570000Y-39820000D02*
X249570000Y-44960000D01*
X249570000Y-39820000D02*
X252230000Y-39820000D01*
X249570000Y-44960000D02*
X252230000Y-44960000D01*
X252230000Y-39820000D02*
X252230000Y-44960000D01*
X182960000Y-35000000D02*
X182960000Y-41060000D01*
X182960000Y-47120000D02*
X182960000Y-41060000D01*
X189680000Y-36220000D02*
X192680000Y-36220000D01*
X189680000Y-45900000D02*
X192680000Y-45900000D01*
X192680000Y-35000000D02*
X182960000Y-35000000D01*
X192680000Y-36220000D02*
X192680000Y-35000000D01*
X192680000Y-45900000D02*
X192680000Y-47120000D01*
X192680000Y-47120000D02*
X182960000Y-47120000D01*
X192730000Y-38060000D02*
X192980000Y-38060000D01*
X192980000Y-34700000D02*
X190480000Y-34700000D01*
X192980000Y-38060000D02*
X192980000Y-34700000D01*
D11*
X197910000Y-34540000D02*
X197910000Y-47540000D01*
X197910000Y-47540000D02*
X247910000Y-47540000D01*
X209410000Y-36140000D02*
X233810000Y-36140000D01*
X209410000Y-45940000D02*
X209410000Y-36140000D01*
X212910000Y-41040000D02*
X210910000Y-41040000D01*
X231910000Y-42040000D02*
X231910000Y-40040000D01*
X232910000Y-41040000D02*
X230910000Y-41040000D01*
X233810000Y-36140000D02*
X233810000Y-39040000D01*
X233810000Y-39040000D02*
X236610000Y-39040000D01*
X233810000Y-43040000D02*
X233810000Y-45940000D01*
X233810000Y-45940000D02*
X209410000Y-45940000D01*
X236610000Y-39040000D02*
X236610000Y-43040000D01*
X236610000Y-43040000D02*
X233810000Y-43040000D01*
X247910000Y-34540000D02*
X197910000Y-34540000D01*
X247910000Y-34540000D02*
X247910000Y-47540000D01*
%LPC*%
D15*
X248660000Y-33200000D03*
D16*
X195720000Y-44720000D03*
D17*
X195720000Y-42180000D03*
X195720000Y-39640000D03*
X195720000Y-37100000D03*
D18*
X239390000Y-22810000D03*
D19*
X239390000Y-24810000D03*
X241390000Y-22810000D03*
X241390000Y-24810000D03*
X243390000Y-22810000D03*
X243390000Y-24810000D03*
X245390000Y-22810000D03*
X245390000Y-24810000D03*
X247390000Y-22810000D03*
X247390000Y-24810000D03*
D15*
X247720000Y-33200000D03*
D20*
X235770000Y-13675000D03*
D21*
X234500000Y-13675000D03*
D20*
X235770000Y-16215000D03*
D21*
X234500000Y-16215000D03*
X252280000Y-18755000D03*
D22*
X251010000Y-18755000D03*
D21*
X252280000Y-16215000D03*
D20*
X251010000Y-16215000D03*
D21*
X252280000Y-8595000D03*
D20*
X251010000Y-8595000D03*
D21*
X252280000Y-6055000D03*
D20*
X251010000Y-6055000D03*
D21*
X252280000Y-13675000D03*
D20*
X251010000Y-13675000D03*
D21*
X252280000Y-11135000D03*
D20*
X251010000Y-11135000D03*
D21*
X252280000Y-3515000D03*
D20*
X251010000Y-3515000D03*
D23*
X235770000Y-3515000D03*
D21*
X234500000Y-3515000D03*
D20*
X235770000Y-6055000D03*
D21*
X234500000Y-6055000D03*
D20*
X235770000Y-8595000D03*
D21*
X234500000Y-8595000D03*
D20*
X235770000Y-11135000D03*
D21*
X234500000Y-11135000D03*
D20*
X235770000Y-18755000D03*
D21*
X234500000Y-18755000D03*
D16*
X250900000Y-38550000D03*
D24*
X250900000Y-41090000D03*
X250900000Y-43630000D03*
D15*
X249610000Y-33210000D03*
D25*
X192070000Y-37060000D03*
D19*
X190070000Y-37060000D03*
X192070000Y-39060000D03*
X190070000Y-39060000D03*
X192070000Y-41060000D03*
X190070000Y-41060000D03*
X192070000Y-43060000D03*
X190070000Y-43060000D03*
X192070000Y-45060000D03*
X190070000Y-45060000D03*
D26*
X245310000Y-41040000D03*
X200510000Y-41040000D03*
%LPD*%
M02*
