M48
; DRILL file {KiCad 9.0.6} date 2026-03-05T16:11:23+0900
; FORMAT={-:-/ absolute / metric / decimal}
; #@! TF.CreationDate,2026-03-05T16:11:23+09:00
; #@! TF.GenerationSoftware,Kicad,Pcbnew,9.0.6
; #@! TF.FileFunction,Plated,1,2,PTH
FMAT,2
METRIC
; #@! TA.AperFunction,Plated,PTH,ViaDrill
T1C0.300
; #@! TA.AperFunction,Plated,PTH,ViaDrill
T2C0.500
; #@! TA.AperFunction,Plated,PTH,ComponentDrill
T3C0.700
; #@! TA.AperFunction,Plated,PTH,ComponentDrill
T4C0.750
; #@! TA.AperFunction,Plated,PTH,ComponentDrill
T5C0.762
; #@! TA.AperFunction,Plated,PTH,ComponentDrill
T6C0.850
; #@! TA.AperFunction,Plated,PTH,ComponentDrill
T7C1.000
%
G90
G05
T1
X235.493Y-20.857
X238.872Y-19.317
X240.583Y-28.357
X243.823Y-8.967
X246.463Y-28.327
X248.413Y-15.577
X249.853Y-21.167
T2
X203.23Y-36.69
X208.73Y-44.92
X212.98Y-39.13
X213.36Y-44.57
X213.61Y-38.485
X213.67Y-40.139
X213.84Y-41.03
X213.975Y-37.663
X217.141Y-43.744
X224.22Y-36.11
X224.29Y-42.57
X232.57Y-41.91
X235.87Y-41.89
X235.966Y-45.479
X238.03Y-45.68
X238.92Y-43.19
X241.808Y-43.9
X242.35Y-38.33
T3
X234.5Y-3.515
X234.5Y-6.055
X234.5Y-8.595
X234.5Y-11.135
X234.5Y-13.675
X234.5Y-16.215
X234.5Y-18.755
X252.28Y-3.515
X252.28Y-6.055
X252.28Y-8.595
X252.28Y-11.135
X252.28Y-13.675
X252.28Y-16.215
X252.28Y-18.755
T4
X190.07Y-37.06
X190.07Y-39.06
X190.07Y-41.06
X190.07Y-43.06
X190.07Y-45.06
X192.07Y-37.06
X192.07Y-39.06
X192.07Y-41.06
X192.07Y-43.06
X192.07Y-45.06
X239.39Y-22.81
X239.39Y-24.81
X241.39Y-22.81
X241.39Y-24.81
X243.39Y-22.81
X243.39Y-24.81
X245.39Y-22.81
X245.39Y-24.81
X247.39Y-22.81
X247.39Y-24.81
T5
X200.51Y-41.04
X245.31Y-41.04
T6
X235.77Y-3.515
X235.77Y-6.055
X235.77Y-8.595
X235.77Y-11.135
X235.77Y-13.675
X235.77Y-16.215
X235.77Y-18.755
X251.01Y-3.515
X251.01Y-6.055
X251.01Y-8.595
X251.01Y-11.135
X251.01Y-13.675
X251.01Y-16.215
X251.01Y-18.755
T7
X195.72Y-37.1
X195.72Y-39.64
X195.72Y-42.18
X195.72Y-44.72
X250.9Y-38.55
X250.9Y-41.09
X250.9Y-43.63
M30
