G04 #@! TF.GenerationSoftware,KiCad,Pcbnew,9.0.6*
G04 #@! TF.CreationDate,2026-03-05T16:11:11+09:00*
G04 #@! TF.ProjectId,PowerMeter2026-nRF,506f7765-724d-4657-9465-72323032362d,rev?*
G04 #@! TF.SameCoordinates,Original*
G04 #@! TF.FileFunction,Legend,Bot*
G04 #@! TF.FilePolarity,Positive*
%FSLAX46Y46*%
G04 Gerber Fmt 4.6, Leading zero omitted, Abs format (unit mm)*
G04 Created by KiCad (PCBNEW 9.0.6) date 2026-03-05 16:11:11*
%MOMM*%
%LPD*%
G01*
G04 APERTURE LIST*
G04 Aperture macros list*
%AMRoundRect*
0 Rectangle with rounded corners*
0 $1 Rounding radius*
0 $2 $3 $4 $5 $6 $7 $8 $9 X,Y pos of 4 corners*
0 Add a 4 corners polygon primitive as box body*
4,1,4,$2,$3,$4,$5,$6,$7,$8,$9,$2,$3,0*
0 Add four circle primitives for the rounded corners*
1,1,$1+$1,$2,$3*
1,1,$1+$1,$4,$5*
1,1,$1+$1,$6,$7*
1,1,$1+$1,$8,$9*
0 Add four rect primitives between the rounded corners*
20,1,$1+$1,$2,$3,$4,$5,0*
20,1,$1+$1,$4,$5,$6,$7,0*
20,1,$1+$1,$6,$7,$8,$9,0*
20,1,$1+$1,$8,$9,$2,$3,0*%
%AMFreePoly0*
4,1,17,0.337601,0.776941,0.776941,0.337601,0.788100,0.310660,0.788100,-0.310660,0.776941,-0.337601,0.337601,-0.776941,0.310660,-0.788100,-0.310660,-0.788100,-0.337601,-0.776941,-0.776941,-0.337601,-0.788100,-0.310660,-0.788100,0.310660,-0.776941,0.337601,-0.337601,0.776941,-0.310660,0.788100,0.310660,0.788100,0.337601,0.776941,0.337601,0.776941,$1*%
G04 Aperture macros list end*
%ADD10C,0.150000*%
%ADD11C,0.120000*%
%ADD12C,0.500000*%
%ADD13R,1.700000X1.700000*%
%ADD14C,1.700000*%
%ADD15RoundRect,0.250000X-0.350000X-0.350000X0.350000X-0.350000X0.350000X0.350000X-0.350000X0.350000X0*%
%ADD16C,1.200000*%
%ADD17C,1.576200*%
%ADD18C,1.346200*%
%ADD19FreePoly0,180.000000*%
%ADD20FreePoly0,0.000000*%
%ADD21O,1.700000X1.700000*%
%ADD22RoundRect,0.250000X-0.350000X0.350000X-0.350000X-0.350000X0.350000X-0.350000X0.350000X0.350000X0*%
%ADD23C,1.524000*%
%ADD24RoundRect,0.225000X0.225000X0.250000X-0.225000X0.250000X-0.225000X-0.250000X0.225000X-0.250000X0*%
%ADD25RoundRect,0.225000X-0.250000X0.225000X-0.250000X-0.225000X0.250000X-0.225000X0.250000X0.225000X0*%
%ADD26RoundRect,0.150000X-0.150000X0.587500X-0.150000X-0.587500X0.150000X-0.587500X0.150000X0.587500X0*%
%ADD27RoundRect,0.200000X-0.275000X0.200000X-0.275000X-0.200000X0.275000X-0.200000X0.275000X0.200000X0*%
%ADD28RoundRect,0.225000X-0.225000X-0.250000X0.225000X-0.250000X0.225000X0.250000X-0.225000X0.250000X0*%
%ADD29RoundRect,0.225000X0.225000X0.375000X-0.225000X0.375000X-0.225000X-0.375000X0.225000X-0.375000X0*%
%ADD30RoundRect,0.100000X-0.637500X-0.100000X0.637500X-0.100000X0.637500X0.100000X-0.637500X0.100000X0*%
%ADD31RoundRect,0.200000X-0.200000X-0.275000X0.200000X-0.275000X0.200000X0.275000X-0.200000X0.275000X0*%
%ADD32RoundRect,0.150000X0.512500X0.150000X-0.512500X0.150000X-0.512500X-0.150000X0.512500X-0.150000X0*%
G04 APERTURE END LIST*
D10*
X217008857Y-42673580D02*
X217056476Y-42721200D01*
X217056476Y-42721200D02*
X217199333Y-42768819D01*
X217199333Y-42768819D02*
X217294571Y-42768819D01*
X217294571Y-42768819D02*
X217437428Y-42721200D01*
X217437428Y-42721200D02*
X217532666Y-42625961D01*
X217532666Y-42625961D02*
X217580285Y-42530723D01*
X217580285Y-42530723D02*
X217627904Y-42340247D01*
X217627904Y-42340247D02*
X217627904Y-42197390D01*
X217627904Y-42197390D02*
X217580285Y-42006914D01*
X217580285Y-42006914D02*
X217532666Y-41911676D01*
X217532666Y-41911676D02*
X217437428Y-41816438D01*
X217437428Y-41816438D02*
X217294571Y-41768819D01*
X217294571Y-41768819D02*
X217199333Y-41768819D01*
X217199333Y-41768819D02*
X217056476Y-41816438D01*
X217056476Y-41816438D02*
X217008857Y-41864057D01*
X216056476Y-42768819D02*
X216627904Y-42768819D01*
X216342190Y-42768819D02*
X216342190Y-41768819D01*
X216342190Y-41768819D02*
X216437428Y-41911676D01*
X216437428Y-41911676D02*
X216532666Y-42006914D01*
X216532666Y-42006914D02*
X216627904Y-42054533D01*
X215151714Y-41768819D02*
X215627904Y-41768819D01*
X215627904Y-41768819D02*
X215675523Y-42245009D01*
X215675523Y-42245009D02*
X215627904Y-42197390D01*
X215627904Y-42197390D02*
X215532666Y-42149771D01*
X215532666Y-42149771D02*
X215294571Y-42149771D01*
X215294571Y-42149771D02*
X215199333Y-42197390D01*
X215199333Y-42197390D02*
X215151714Y-42245009D01*
X215151714Y-42245009D02*
X215104095Y-42340247D01*
X215104095Y-42340247D02*
X215104095Y-42578342D01*
X215104095Y-42578342D02*
X215151714Y-42673580D01*
X215151714Y-42673580D02*
X215199333Y-42721200D01*
X215199333Y-42721200D02*
X215294571Y-42768819D01*
X215294571Y-42768819D02*
X215532666Y-42768819D01*
X215532666Y-42768819D02*
X215627904Y-42721200D01*
X215627904Y-42721200D02*
X215675523Y-42673580D01*
X205495580Y-40747333D02*
X205543200Y-40699714D01*
X205543200Y-40699714D02*
X205590819Y-40556857D01*
X205590819Y-40556857D02*
X205590819Y-40461619D01*
X205590819Y-40461619D02*
X205543200Y-40318762D01*
X205543200Y-40318762D02*
X205447961Y-40223524D01*
X205447961Y-40223524D02*
X205352723Y-40175905D01*
X205352723Y-40175905D02*
X205162247Y-40128286D01*
X205162247Y-40128286D02*
X205019390Y-40128286D01*
X205019390Y-40128286D02*
X204828914Y-40175905D01*
X204828914Y-40175905D02*
X204733676Y-40223524D01*
X204733676Y-40223524D02*
X204638438Y-40318762D01*
X204638438Y-40318762D02*
X204590819Y-40461619D01*
X204590819Y-40461619D02*
X204590819Y-40556857D01*
X204590819Y-40556857D02*
X204638438Y-40699714D01*
X204638438Y-40699714D02*
X204686057Y-40747333D01*
X204924152Y-41604476D02*
X205590819Y-41604476D01*
X204543200Y-41366381D02*
X205257485Y-41128286D01*
X205257485Y-41128286D02*
X205257485Y-41747333D01*
X234895580Y-44537333D02*
X234943200Y-44489714D01*
X234943200Y-44489714D02*
X234990819Y-44346857D01*
X234990819Y-44346857D02*
X234990819Y-44251619D01*
X234990819Y-44251619D02*
X234943200Y-44108762D01*
X234943200Y-44108762D02*
X234847961Y-44013524D01*
X234847961Y-44013524D02*
X234752723Y-43965905D01*
X234752723Y-43965905D02*
X234562247Y-43918286D01*
X234562247Y-43918286D02*
X234419390Y-43918286D01*
X234419390Y-43918286D02*
X234228914Y-43965905D01*
X234228914Y-43965905D02*
X234133676Y-44013524D01*
X234133676Y-44013524D02*
X234038438Y-44108762D01*
X234038438Y-44108762D02*
X233990819Y-44251619D01*
X233990819Y-44251619D02*
X233990819Y-44346857D01*
X233990819Y-44346857D02*
X234038438Y-44489714D01*
X234038438Y-44489714D02*
X234086057Y-44537333D01*
X233990819Y-44870667D02*
X233990819Y-45537333D01*
X233990819Y-45537333D02*
X234990819Y-45108762D01*
X238971666Y-44609580D02*
X239019285Y-44657200D01*
X239019285Y-44657200D02*
X239162142Y-44704819D01*
X239162142Y-44704819D02*
X239257380Y-44704819D01*
X239257380Y-44704819D02*
X239400237Y-44657200D01*
X239400237Y-44657200D02*
X239495475Y-44561961D01*
X239495475Y-44561961D02*
X239543094Y-44466723D01*
X239543094Y-44466723D02*
X239590713Y-44276247D01*
X239590713Y-44276247D02*
X239590713Y-44133390D01*
X239590713Y-44133390D02*
X239543094Y-43942914D01*
X239543094Y-43942914D02*
X239495475Y-43847676D01*
X239495475Y-43847676D02*
X239400237Y-43752438D01*
X239400237Y-43752438D02*
X239257380Y-43704819D01*
X239257380Y-43704819D02*
X239162142Y-43704819D01*
X239162142Y-43704819D02*
X239019285Y-43752438D01*
X239019285Y-43752438D02*
X238971666Y-43800057D01*
X238066904Y-43704819D02*
X238543094Y-43704819D01*
X238543094Y-43704819D02*
X238590713Y-44181009D01*
X238590713Y-44181009D02*
X238543094Y-44133390D01*
X238543094Y-44133390D02*
X238447856Y-44085771D01*
X238447856Y-44085771D02*
X238209761Y-44085771D01*
X238209761Y-44085771D02*
X238114523Y-44133390D01*
X238114523Y-44133390D02*
X238066904Y-44181009D01*
X238066904Y-44181009D02*
X238019285Y-44276247D01*
X238019285Y-44276247D02*
X238019285Y-44514342D01*
X238019285Y-44514342D02*
X238066904Y-44609580D01*
X238066904Y-44609580D02*
X238114523Y-44657200D01*
X238114523Y-44657200D02*
X238209761Y-44704819D01*
X238209761Y-44704819D02*
X238447856Y-44704819D01*
X238447856Y-44704819D02*
X238543094Y-44657200D01*
X238543094Y-44657200D02*
X238590713Y-44609580D01*
X240737580Y-42958333D02*
X240785200Y-42910714D01*
X240785200Y-42910714D02*
X240832819Y-42767857D01*
X240832819Y-42767857D02*
X240832819Y-42672619D01*
X240832819Y-42672619D02*
X240785200Y-42529762D01*
X240785200Y-42529762D02*
X240689961Y-42434524D01*
X240689961Y-42434524D02*
X240594723Y-42386905D01*
X240594723Y-42386905D02*
X240404247Y-42339286D01*
X240404247Y-42339286D02*
X240261390Y-42339286D01*
X240261390Y-42339286D02*
X240070914Y-42386905D01*
X240070914Y-42386905D02*
X239975676Y-42434524D01*
X239975676Y-42434524D02*
X239880438Y-42529762D01*
X239880438Y-42529762D02*
X239832819Y-42672619D01*
X239832819Y-42672619D02*
X239832819Y-42767857D01*
X239832819Y-42767857D02*
X239880438Y-42910714D01*
X239880438Y-42910714D02*
X239928057Y-42958333D01*
X239832819Y-43815476D02*
X239832819Y-43625000D01*
X239832819Y-43625000D02*
X239880438Y-43529762D01*
X239880438Y-43529762D02*
X239928057Y-43482143D01*
X239928057Y-43482143D02*
X240070914Y-43386905D01*
X240070914Y-43386905D02*
X240261390Y-43339286D01*
X240261390Y-43339286D02*
X240642342Y-43339286D01*
X240642342Y-43339286D02*
X240737580Y-43386905D01*
X240737580Y-43386905D02*
X240785200Y-43434524D01*
X240785200Y-43434524D02*
X240832819Y-43529762D01*
X240832819Y-43529762D02*
X240832819Y-43720238D01*
X240832819Y-43720238D02*
X240785200Y-43815476D01*
X240785200Y-43815476D02*
X240737580Y-43863095D01*
X240737580Y-43863095D02*
X240642342Y-43910714D01*
X240642342Y-43910714D02*
X240404247Y-43910714D01*
X240404247Y-43910714D02*
X240309009Y-43863095D01*
X240309009Y-43863095D02*
X240261390Y-43815476D01*
X240261390Y-43815476D02*
X240213771Y-43720238D01*
X240213771Y-43720238D02*
X240213771Y-43529762D01*
X240213771Y-43529762D02*
X240261390Y-43434524D01*
X240261390Y-43434524D02*
X240309009Y-43386905D01*
X240309009Y-43386905D02*
X240404247Y-43339286D01*
X205930057Y-45762261D02*
X205882438Y-45667023D01*
X205882438Y-45667023D02*
X205787200Y-45571785D01*
X205787200Y-45571785D02*
X205644342Y-45428928D01*
X205644342Y-45428928D02*
X205596723Y-45333690D01*
X205596723Y-45333690D02*
X205596723Y-45238452D01*
X205834819Y-45286071D02*
X205787200Y-45190833D01*
X205787200Y-45190833D02*
X205691961Y-45095595D01*
X205691961Y-45095595D02*
X205501485Y-45047976D01*
X205501485Y-45047976D02*
X205168152Y-45047976D01*
X205168152Y-45047976D02*
X204977676Y-45095595D01*
X204977676Y-45095595D02*
X204882438Y-45190833D01*
X204882438Y-45190833D02*
X204834819Y-45286071D01*
X204834819Y-45286071D02*
X204834819Y-45476547D01*
X204834819Y-45476547D02*
X204882438Y-45571785D01*
X204882438Y-45571785D02*
X204977676Y-45667023D01*
X204977676Y-45667023D02*
X205168152Y-45714642D01*
X205168152Y-45714642D02*
X205501485Y-45714642D01*
X205501485Y-45714642D02*
X205691961Y-45667023D01*
X205691961Y-45667023D02*
X205787200Y-45571785D01*
X205787200Y-45571785D02*
X205834819Y-45476547D01*
X205834819Y-45476547D02*
X205834819Y-45286071D01*
X205834819Y-46667023D02*
X205834819Y-46095595D01*
X205834819Y-46381309D02*
X204834819Y-46381309D01*
X204834819Y-46381309D02*
X204977676Y-46286071D01*
X204977676Y-46286071D02*
X205072914Y-46190833D01*
X205072914Y-46190833D02*
X205120533Y-46095595D01*
X242356819Y-43013333D02*
X241880628Y-42680000D01*
X242356819Y-42441905D02*
X241356819Y-42441905D01*
X241356819Y-42441905D02*
X241356819Y-42822857D01*
X241356819Y-42822857D02*
X241404438Y-42918095D01*
X241404438Y-42918095D02*
X241452057Y-42965714D01*
X241452057Y-42965714D02*
X241547295Y-43013333D01*
X241547295Y-43013333D02*
X241690152Y-43013333D01*
X241690152Y-43013333D02*
X241785390Y-42965714D01*
X241785390Y-42965714D02*
X241833009Y-42918095D01*
X241833009Y-42918095D02*
X241880628Y-42822857D01*
X241880628Y-42822857D02*
X241880628Y-42441905D01*
X241356819Y-43346667D02*
X241356819Y-43965714D01*
X241356819Y-43965714D02*
X241737771Y-43632381D01*
X241737771Y-43632381D02*
X241737771Y-43775238D01*
X241737771Y-43775238D02*
X241785390Y-43870476D01*
X241785390Y-43870476D02*
X241833009Y-43918095D01*
X241833009Y-43918095D02*
X241928247Y-43965714D01*
X241928247Y-43965714D02*
X242166342Y-43965714D01*
X242166342Y-43965714D02*
X242261580Y-43918095D01*
X242261580Y-43918095D02*
X242309200Y-43870476D01*
X242309200Y-43870476D02*
X242356819Y-43775238D01*
X242356819Y-43775238D02*
X242356819Y-43489524D01*
X242356819Y-43489524D02*
X242309200Y-43394286D01*
X242309200Y-43394286D02*
X242261580Y-43346667D01*
X233531666Y-42149580D02*
X233579285Y-42197200D01*
X233579285Y-42197200D02*
X233722142Y-42244819D01*
X233722142Y-42244819D02*
X233817380Y-42244819D01*
X233817380Y-42244819D02*
X233960237Y-42197200D01*
X233960237Y-42197200D02*
X234055475Y-42101961D01*
X234055475Y-42101961D02*
X234103094Y-42006723D01*
X234103094Y-42006723D02*
X234150713Y-41816247D01*
X234150713Y-41816247D02*
X234150713Y-41673390D01*
X234150713Y-41673390D02*
X234103094Y-41482914D01*
X234103094Y-41482914D02*
X234055475Y-41387676D01*
X234055475Y-41387676D02*
X233960237Y-41292438D01*
X233960237Y-41292438D02*
X233817380Y-41244819D01*
X233817380Y-41244819D02*
X233722142Y-41244819D01*
X233722142Y-41244819D02*
X233579285Y-41292438D01*
X233579285Y-41292438D02*
X233531666Y-41340057D01*
X232960237Y-41673390D02*
X233055475Y-41625771D01*
X233055475Y-41625771D02*
X233103094Y-41578152D01*
X233103094Y-41578152D02*
X233150713Y-41482914D01*
X233150713Y-41482914D02*
X233150713Y-41435295D01*
X233150713Y-41435295D02*
X233103094Y-41340057D01*
X233103094Y-41340057D02*
X233055475Y-41292438D01*
X233055475Y-41292438D02*
X232960237Y-41244819D01*
X232960237Y-41244819D02*
X232769761Y-41244819D01*
X232769761Y-41244819D02*
X232674523Y-41292438D01*
X232674523Y-41292438D02*
X232626904Y-41340057D01*
X232626904Y-41340057D02*
X232579285Y-41435295D01*
X232579285Y-41435295D02*
X232579285Y-41482914D01*
X232579285Y-41482914D02*
X232626904Y-41578152D01*
X232626904Y-41578152D02*
X232674523Y-41625771D01*
X232674523Y-41625771D02*
X232769761Y-41673390D01*
X232769761Y-41673390D02*
X232960237Y-41673390D01*
X232960237Y-41673390D02*
X233055475Y-41721009D01*
X233055475Y-41721009D02*
X233103094Y-41768628D01*
X233103094Y-41768628D02*
X233150713Y-41863866D01*
X233150713Y-41863866D02*
X233150713Y-42054342D01*
X233150713Y-42054342D02*
X233103094Y-42149580D01*
X233103094Y-42149580D02*
X233055475Y-42197200D01*
X233055475Y-42197200D02*
X232960237Y-42244819D01*
X232960237Y-42244819D02*
X232769761Y-42244819D01*
X232769761Y-42244819D02*
X232674523Y-42197200D01*
X232674523Y-42197200D02*
X232626904Y-42149580D01*
X232626904Y-42149580D02*
X232579285Y-42054342D01*
X232579285Y-42054342D02*
X232579285Y-41863866D01*
X232579285Y-41863866D02*
X232626904Y-41768628D01*
X232626904Y-41768628D02*
X232674523Y-41721009D01*
X232674523Y-41721009D02*
X232769761Y-41673390D01*
X238855594Y-38754819D02*
X238855594Y-37754819D01*
X238855594Y-37754819D02*
X238617499Y-37754819D01*
X238617499Y-37754819D02*
X238474642Y-37802438D01*
X238474642Y-37802438D02*
X238379404Y-37897676D01*
X238379404Y-37897676D02*
X238331785Y-37992914D01*
X238331785Y-37992914D02*
X238284166Y-38183390D01*
X238284166Y-38183390D02*
X238284166Y-38326247D01*
X238284166Y-38326247D02*
X238331785Y-38516723D01*
X238331785Y-38516723D02*
X238379404Y-38611961D01*
X238379404Y-38611961D02*
X238474642Y-38707200D01*
X238474642Y-38707200D02*
X238617499Y-38754819D01*
X238617499Y-38754819D02*
X238855594Y-38754819D01*
X237427023Y-37754819D02*
X237617499Y-37754819D01*
X237617499Y-37754819D02*
X237712737Y-37802438D01*
X237712737Y-37802438D02*
X237760356Y-37850057D01*
X237760356Y-37850057D02*
X237855594Y-37992914D01*
X237855594Y-37992914D02*
X237903213Y-38183390D01*
X237903213Y-38183390D02*
X237903213Y-38564342D01*
X237903213Y-38564342D02*
X237855594Y-38659580D01*
X237855594Y-38659580D02*
X237807975Y-38707200D01*
X237807975Y-38707200D02*
X237712737Y-38754819D01*
X237712737Y-38754819D02*
X237522261Y-38754819D01*
X237522261Y-38754819D02*
X237427023Y-38707200D01*
X237427023Y-38707200D02*
X237379404Y-38659580D01*
X237379404Y-38659580D02*
X237331785Y-38564342D01*
X237331785Y-38564342D02*
X237331785Y-38326247D01*
X237331785Y-38326247D02*
X237379404Y-38231009D01*
X237379404Y-38231009D02*
X237427023Y-38183390D01*
X237427023Y-38183390D02*
X237522261Y-38135771D01*
X237522261Y-38135771D02*
X237712737Y-38135771D01*
X237712737Y-38135771D02*
X237807975Y-38183390D01*
X237807975Y-38183390D02*
X237855594Y-38231009D01*
X237855594Y-38231009D02*
X237903213Y-38326247D01*
X218388857Y-40063580D02*
X218436476Y-40111200D01*
X218436476Y-40111200D02*
X218579333Y-40158819D01*
X218579333Y-40158819D02*
X218674571Y-40158819D01*
X218674571Y-40158819D02*
X218817428Y-40111200D01*
X218817428Y-40111200D02*
X218912666Y-40015961D01*
X218912666Y-40015961D02*
X218960285Y-39920723D01*
X218960285Y-39920723D02*
X219007904Y-39730247D01*
X219007904Y-39730247D02*
X219007904Y-39587390D01*
X219007904Y-39587390D02*
X218960285Y-39396914D01*
X218960285Y-39396914D02*
X218912666Y-39301676D01*
X218912666Y-39301676D02*
X218817428Y-39206438D01*
X218817428Y-39206438D02*
X218674571Y-39158819D01*
X218674571Y-39158819D02*
X218579333Y-39158819D01*
X218579333Y-39158819D02*
X218436476Y-39206438D01*
X218436476Y-39206438D02*
X218388857Y-39254057D01*
X217436476Y-40158819D02*
X218007904Y-40158819D01*
X217722190Y-40158819D02*
X217722190Y-39158819D01*
X217722190Y-39158819D02*
X217817428Y-39301676D01*
X217817428Y-39301676D02*
X217912666Y-39396914D01*
X217912666Y-39396914D02*
X218007904Y-39444533D01*
X216579333Y-39492152D02*
X216579333Y-40158819D01*
X216817428Y-39111200D02*
X217055523Y-39825485D01*
X217055523Y-39825485D02*
X216436476Y-39825485D01*
X213101904Y-43214819D02*
X213101904Y-44024342D01*
X213101904Y-44024342D02*
X213054285Y-44119580D01*
X213054285Y-44119580D02*
X213006666Y-44167200D01*
X213006666Y-44167200D02*
X212911428Y-44214819D01*
X212911428Y-44214819D02*
X212720952Y-44214819D01*
X212720952Y-44214819D02*
X212625714Y-44167200D01*
X212625714Y-44167200D02*
X212578095Y-44119580D01*
X212578095Y-44119580D02*
X212530476Y-44024342D01*
X212530476Y-44024342D02*
X212530476Y-43214819D01*
X211578095Y-43214819D02*
X212054285Y-43214819D01*
X212054285Y-43214819D02*
X212101904Y-43691009D01*
X212101904Y-43691009D02*
X212054285Y-43643390D01*
X212054285Y-43643390D02*
X211959047Y-43595771D01*
X211959047Y-43595771D02*
X211720952Y-43595771D01*
X211720952Y-43595771D02*
X211625714Y-43643390D01*
X211625714Y-43643390D02*
X211578095Y-43691009D01*
X211578095Y-43691009D02*
X211530476Y-43786247D01*
X211530476Y-43786247D02*
X211530476Y-44024342D01*
X211530476Y-44024342D02*
X211578095Y-44119580D01*
X211578095Y-44119580D02*
X211625714Y-44167200D01*
X211625714Y-44167200D02*
X211720952Y-44214819D01*
X211720952Y-44214819D02*
X211959047Y-44214819D01*
X211959047Y-44214819D02*
X212054285Y-44167200D01*
X212054285Y-44167200D02*
X212101904Y-44119580D01*
X204938857Y-43548819D02*
X205272190Y-43072628D01*
X205510285Y-43548819D02*
X205510285Y-42548819D01*
X205510285Y-42548819D02*
X205129333Y-42548819D01*
X205129333Y-42548819D02*
X205034095Y-42596438D01*
X205034095Y-42596438D02*
X204986476Y-42644057D01*
X204986476Y-42644057D02*
X204938857Y-42739295D01*
X204938857Y-42739295D02*
X204938857Y-42882152D01*
X204938857Y-42882152D02*
X204986476Y-42977390D01*
X204986476Y-42977390D02*
X205034095Y-43025009D01*
X205034095Y-43025009D02*
X205129333Y-43072628D01*
X205129333Y-43072628D02*
X205510285Y-43072628D01*
X203986476Y-43548819D02*
X204557904Y-43548819D01*
X204272190Y-43548819D02*
X204272190Y-42548819D01*
X204272190Y-42548819D02*
X204367428Y-42691676D01*
X204367428Y-42691676D02*
X204462666Y-42786914D01*
X204462666Y-42786914D02*
X204557904Y-42834533D01*
X203034095Y-43548819D02*
X203605523Y-43548819D01*
X203319809Y-43548819D02*
X203319809Y-42548819D01*
X203319809Y-42548819D02*
X203415047Y-42691676D01*
X203415047Y-42691676D02*
X203510285Y-42786914D01*
X203510285Y-42786914D02*
X203605523Y-42834533D01*
X233592666Y-40746819D02*
X233925999Y-40270628D01*
X234164094Y-40746819D02*
X234164094Y-39746819D01*
X234164094Y-39746819D02*
X233783142Y-39746819D01*
X233783142Y-39746819D02*
X233687904Y-39794438D01*
X233687904Y-39794438D02*
X233640285Y-39842057D01*
X233640285Y-39842057D02*
X233592666Y-39937295D01*
X233592666Y-39937295D02*
X233592666Y-40080152D01*
X233592666Y-40080152D02*
X233640285Y-40175390D01*
X233640285Y-40175390D02*
X233687904Y-40223009D01*
X233687904Y-40223009D02*
X233783142Y-40270628D01*
X233783142Y-40270628D02*
X234164094Y-40270628D01*
X232735523Y-40080152D02*
X232735523Y-40746819D01*
X232973618Y-39699200D02*
X233211713Y-40413485D01*
X233211713Y-40413485D02*
X232592666Y-40413485D01*
X239703904Y-40254819D02*
X239703904Y-41064342D01*
X239703904Y-41064342D02*
X239656285Y-41159580D01*
X239656285Y-41159580D02*
X239608666Y-41207200D01*
X239608666Y-41207200D02*
X239513428Y-41254819D01*
X239513428Y-41254819D02*
X239322952Y-41254819D01*
X239322952Y-41254819D02*
X239227714Y-41207200D01*
X239227714Y-41207200D02*
X239180095Y-41159580D01*
X239180095Y-41159580D02*
X239132476Y-41064342D01*
X239132476Y-41064342D02*
X239132476Y-40254819D01*
X238751523Y-40254819D02*
X238132476Y-40254819D01*
X238132476Y-40254819D02*
X238465809Y-40635771D01*
X238465809Y-40635771D02*
X238322952Y-40635771D01*
X238322952Y-40635771D02*
X238227714Y-40683390D01*
X238227714Y-40683390D02*
X238180095Y-40731009D01*
X238180095Y-40731009D02*
X238132476Y-40826247D01*
X238132476Y-40826247D02*
X238132476Y-41064342D01*
X238132476Y-41064342D02*
X238180095Y-41159580D01*
X238180095Y-41159580D02*
X238227714Y-41207200D01*
X238227714Y-41207200D02*
X238322952Y-41254819D01*
X238322952Y-41254819D02*
X238608666Y-41254819D01*
X238608666Y-41254819D02*
X238703904Y-41207200D01*
X238703904Y-41207200D02*
X238751523Y-41159580D01*
X207602857Y-44929580D02*
X207650476Y-44977200D01*
X207650476Y-44977200D02*
X207793333Y-45024819D01*
X207793333Y-45024819D02*
X207888571Y-45024819D01*
X207888571Y-45024819D02*
X208031428Y-44977200D01*
X208031428Y-44977200D02*
X208126666Y-44881961D01*
X208126666Y-44881961D02*
X208174285Y-44786723D01*
X208174285Y-44786723D02*
X208221904Y-44596247D01*
X208221904Y-44596247D02*
X208221904Y-44453390D01*
X208221904Y-44453390D02*
X208174285Y-44262914D01*
X208174285Y-44262914D02*
X208126666Y-44167676D01*
X208126666Y-44167676D02*
X208031428Y-44072438D01*
X208031428Y-44072438D02*
X207888571Y-44024819D01*
X207888571Y-44024819D02*
X207793333Y-44024819D01*
X207793333Y-44024819D02*
X207650476Y-44072438D01*
X207650476Y-44072438D02*
X207602857Y-44120057D01*
X206650476Y-45024819D02*
X207221904Y-45024819D01*
X206936190Y-45024819D02*
X206936190Y-44024819D01*
X206936190Y-44024819D02*
X207031428Y-44167676D01*
X207031428Y-44167676D02*
X207126666Y-44262914D01*
X207126666Y-44262914D02*
X207221904Y-44310533D01*
X206317142Y-44024819D02*
X205698095Y-44024819D01*
X205698095Y-44024819D02*
X206031428Y-44405771D01*
X206031428Y-44405771D02*
X205888571Y-44405771D01*
X205888571Y-44405771D02*
X205793333Y-44453390D01*
X205793333Y-44453390D02*
X205745714Y-44501009D01*
X205745714Y-44501009D02*
X205698095Y-44596247D01*
X205698095Y-44596247D02*
X205698095Y-44834342D01*
X205698095Y-44834342D02*
X205745714Y-44929580D01*
X205745714Y-44929580D02*
X205793333Y-44977200D01*
X205793333Y-44977200D02*
X205888571Y-45024819D01*
X205888571Y-45024819D02*
X206174285Y-45024819D01*
X206174285Y-45024819D02*
X206269523Y-44977200D01*
X206269523Y-44977200D02*
X206317142Y-44929580D01*
X233561666Y-43794819D02*
X233894999Y-43318628D01*
X234133094Y-43794819D02*
X234133094Y-42794819D01*
X234133094Y-42794819D02*
X233752142Y-42794819D01*
X233752142Y-42794819D02*
X233656904Y-42842438D01*
X233656904Y-42842438D02*
X233609285Y-42890057D01*
X233609285Y-42890057D02*
X233561666Y-42985295D01*
X233561666Y-42985295D02*
X233561666Y-43128152D01*
X233561666Y-43128152D02*
X233609285Y-43223390D01*
X233609285Y-43223390D02*
X233656904Y-43271009D01*
X233656904Y-43271009D02*
X233752142Y-43318628D01*
X233752142Y-43318628D02*
X234133094Y-43318628D01*
X232656904Y-42794819D02*
X233133094Y-42794819D01*
X233133094Y-42794819D02*
X233180713Y-43271009D01*
X233180713Y-43271009D02*
X233133094Y-43223390D01*
X233133094Y-43223390D02*
X233037856Y-43175771D01*
X233037856Y-43175771D02*
X232799761Y-43175771D01*
X232799761Y-43175771D02*
X232704523Y-43223390D01*
X232704523Y-43223390D02*
X232656904Y-43271009D01*
X232656904Y-43271009D02*
X232609285Y-43366247D01*
X232609285Y-43366247D02*
X232609285Y-43604342D01*
X232609285Y-43604342D02*
X232656904Y-43699580D01*
X232656904Y-43699580D02*
X232704523Y-43747200D01*
X232704523Y-43747200D02*
X232799761Y-43794819D01*
X232799761Y-43794819D02*
X233037856Y-43794819D01*
X233037856Y-43794819D02*
X233133094Y-43747200D01*
X233133094Y-43747200D02*
X233180713Y-43699580D01*
X204938857Y-42028819D02*
X205272190Y-41552628D01*
X205510285Y-42028819D02*
X205510285Y-41028819D01*
X205510285Y-41028819D02*
X205129333Y-41028819D01*
X205129333Y-41028819D02*
X205034095Y-41076438D01*
X205034095Y-41076438D02*
X204986476Y-41124057D01*
X204986476Y-41124057D02*
X204938857Y-41219295D01*
X204938857Y-41219295D02*
X204938857Y-41362152D01*
X204938857Y-41362152D02*
X204986476Y-41457390D01*
X204986476Y-41457390D02*
X205034095Y-41505009D01*
X205034095Y-41505009D02*
X205129333Y-41552628D01*
X205129333Y-41552628D02*
X205510285Y-41552628D01*
X203986476Y-42028819D02*
X204557904Y-42028819D01*
X204272190Y-42028819D02*
X204272190Y-41028819D01*
X204272190Y-41028819D02*
X204367428Y-41171676D01*
X204367428Y-41171676D02*
X204462666Y-41266914D01*
X204462666Y-41266914D02*
X204557904Y-41314533D01*
X203605523Y-41124057D02*
X203557904Y-41076438D01*
X203557904Y-41076438D02*
X203462666Y-41028819D01*
X203462666Y-41028819D02*
X203224571Y-41028819D01*
X203224571Y-41028819D02*
X203129333Y-41076438D01*
X203129333Y-41076438D02*
X203081714Y-41124057D01*
X203081714Y-41124057D02*
X203034095Y-41219295D01*
X203034095Y-41219295D02*
X203034095Y-41314533D01*
X203034095Y-41314533D02*
X203081714Y-41457390D01*
X203081714Y-41457390D02*
X203653142Y-42028819D01*
X203653142Y-42028819D02*
X203034095Y-42028819D01*
D11*
X216506580Y-43234000D02*
X216225420Y-43234000D01*
X216506580Y-44254000D02*
X216225420Y-44254000D01*
X206056000Y-40773420D02*
X206056000Y-41054580D01*
X207076000Y-40773420D02*
X207076000Y-41054580D01*
X235456000Y-44563420D02*
X235456000Y-44844580D01*
X236476000Y-44563420D02*
X236476000Y-44844580D01*
X238945580Y-45170000D02*
X238664420Y-45170000D01*
X238945580Y-46190000D02*
X238664420Y-46190000D01*
X241298000Y-42984420D02*
X241298000Y-43265580D01*
X242318000Y-42984420D02*
X242318000Y-43265580D01*
X206220000Y-45097500D02*
X206220000Y-46617500D01*
X206220000Y-46617500D02*
X207220000Y-46617500D01*
X206270000Y-45097500D02*
X206220000Y-45097500D01*
X208170000Y-45097500D02*
X207390000Y-45097500D01*
X208340000Y-46617500D02*
X209340000Y-46617500D01*
X209340000Y-45097500D02*
X209290000Y-45097500D01*
X209340000Y-46617500D02*
X209340000Y-45097500D01*
X207730000Y-44797500D02*
X207400000Y-44557500D01*
X207730000Y-44317500D01*
X207730000Y-44797500D01*
G36*
X207730000Y-44797500D02*
G01*
X207400000Y-44557500D01*
X207730000Y-44317500D01*
X207730000Y-44797500D01*
G37*
X242809500Y-42942742D02*
X242809500Y-43417258D01*
X243854500Y-42942742D02*
X243854500Y-43417258D01*
X233224420Y-39850000D02*
X233505580Y-39850000D01*
X233224420Y-40870000D02*
X233505580Y-40870000D01*
X240477500Y-39300000D02*
X236467500Y-39300000D01*
X240477500Y-39300000D02*
X240477500Y-41300000D01*
X240477500Y-41300000D02*
X236467500Y-41300000D01*
X217886580Y-40624000D02*
X217605420Y-40624000D01*
X217886580Y-41644000D02*
X217605420Y-41644000D01*
X210030000Y-42945000D02*
X214650000Y-42945000D01*
X214650000Y-36175000D02*
X210030000Y-36175000D01*
X208480000Y-42490000D02*
X208150000Y-42730000D01*
X208150000Y-42250000D01*
X208480000Y-42490000D01*
G36*
X208480000Y-42490000D02*
G01*
X208150000Y-42730000D01*
X208150000Y-42250000D01*
X208480000Y-42490000D01*
G37*
X204058742Y-41141500D02*
X204533258Y-41141500D01*
X204058742Y-42186500D02*
X204533258Y-42186500D01*
X233188742Y-38339500D02*
X233663258Y-38339500D01*
X233188742Y-39384500D02*
X233663258Y-39384500D01*
X238032000Y-41640000D02*
X238032000Y-41690000D01*
X238032000Y-42810000D02*
X238032000Y-43590000D01*
X238032000Y-44710000D02*
X238032000Y-44760000D01*
X238032000Y-44760000D02*
X239852000Y-44760000D01*
X239852000Y-41640000D02*
X238032000Y-41640000D01*
X239852000Y-41690000D02*
X239852000Y-41640000D01*
X239852000Y-44760000D02*
X239852000Y-44710000D01*
X240392000Y-41690000D02*
X240152000Y-41360000D01*
X240632000Y-41360000D01*
X240392000Y-41690000D01*
G36*
X240392000Y-41690000D02*
G01*
X240152000Y-41360000D01*
X240632000Y-41360000D01*
X240392000Y-41690000D01*
G37*
X206819420Y-42630000D02*
X207100580Y-42630000D01*
X206819420Y-43650000D02*
X207100580Y-43650000D01*
X233157742Y-41387500D02*
X233632258Y-41387500D01*
X233157742Y-42432500D02*
X233632258Y-42432500D01*
X204058742Y-39621500D02*
X204533258Y-39621500D01*
X204058742Y-40666500D02*
X204533258Y-40666500D01*
%LPC*%
D12*
X248660000Y-33200000D03*
D13*
X195720000Y-44720000D03*
D14*
X195720000Y-42180000D03*
X195720000Y-39640000D03*
X195720000Y-37100000D03*
D15*
X239390000Y-22810000D03*
D16*
X239390000Y-24810000D03*
X241390000Y-22810000D03*
X241390000Y-24810000D03*
X243390000Y-22810000D03*
X243390000Y-24810000D03*
X245390000Y-22810000D03*
X245390000Y-24810000D03*
X247390000Y-22810000D03*
X247390000Y-24810000D03*
D12*
X247720000Y-33200000D03*
D17*
X235770000Y-13675000D03*
D18*
X234500000Y-13675000D03*
D17*
X235770000Y-16215000D03*
D18*
X234500000Y-16215000D03*
X252280000Y-18755000D03*
D19*
X251010000Y-18755000D03*
D18*
X252280000Y-16215000D03*
D17*
X251010000Y-16215000D03*
D18*
X252280000Y-8595000D03*
D17*
X251010000Y-8595000D03*
D18*
X252280000Y-6055000D03*
D17*
X251010000Y-6055000D03*
D18*
X252280000Y-13675000D03*
D17*
X251010000Y-13675000D03*
D18*
X252280000Y-11135000D03*
D17*
X251010000Y-11135000D03*
D18*
X252280000Y-3515000D03*
D17*
X251010000Y-3515000D03*
D20*
X235770000Y-3515000D03*
D18*
X234500000Y-3515000D03*
D17*
X235770000Y-6055000D03*
D18*
X234500000Y-6055000D03*
D17*
X235770000Y-8595000D03*
D18*
X234500000Y-8595000D03*
D17*
X235770000Y-11135000D03*
D18*
X234500000Y-11135000D03*
D17*
X235770000Y-18755000D03*
D18*
X234500000Y-18755000D03*
D13*
X250900000Y-38550000D03*
D21*
X250900000Y-41090000D03*
X250900000Y-43630000D03*
D12*
X249610000Y-33210000D03*
D22*
X192070000Y-37060000D03*
D16*
X190070000Y-37060000D03*
X192070000Y-39060000D03*
X190070000Y-39060000D03*
X192070000Y-41060000D03*
X190070000Y-41060000D03*
X192070000Y-43060000D03*
X190070000Y-43060000D03*
X192070000Y-45060000D03*
X190070000Y-45060000D03*
D23*
X245310000Y-41040000D03*
X200510000Y-41040000D03*
D24*
X217141000Y-43744000D03*
X215591000Y-43744000D03*
D25*
X206566000Y-40139000D03*
X206566000Y-41689000D03*
X235966000Y-43929000D03*
X235966000Y-45479000D03*
D24*
X239580000Y-45680000D03*
X238030000Y-45680000D03*
D25*
X241808000Y-42350000D03*
X241808000Y-43900000D03*
D26*
X206830000Y-44920000D03*
X208730000Y-44920000D03*
X207780000Y-46795000D03*
D27*
X243332000Y-42355000D03*
X243332000Y-44005000D03*
D28*
X232590000Y-40360000D03*
X234140000Y-40360000D03*
D29*
X239767500Y-40300000D03*
X236467500Y-40300000D03*
D24*
X218521000Y-41134000D03*
X216971000Y-41134000D03*
D30*
X209477500Y-42485000D03*
X209477500Y-41835000D03*
X209477500Y-41185000D03*
X209477500Y-40535000D03*
X209477500Y-39885000D03*
X209477500Y-39235000D03*
X209477500Y-38585000D03*
X209477500Y-37935000D03*
X209477500Y-37285000D03*
X209477500Y-36635000D03*
X215202500Y-36635000D03*
X215202500Y-37285000D03*
X215202500Y-37935000D03*
X215202500Y-38585000D03*
X215202500Y-39235000D03*
X215202500Y-39885000D03*
X215202500Y-40535000D03*
X215202500Y-41185000D03*
X215202500Y-41835000D03*
X215202500Y-42485000D03*
D31*
X203471000Y-41664000D03*
X205121000Y-41664000D03*
X232601000Y-38862000D03*
X234251000Y-38862000D03*
D32*
X240079500Y-42250000D03*
X240079500Y-43200000D03*
X240079500Y-44150000D03*
X237804500Y-44150000D03*
X237804500Y-42250000D03*
D28*
X206185000Y-43140000D03*
X207735000Y-43140000D03*
D31*
X232570000Y-41910000D03*
X234220000Y-41910000D03*
X203471000Y-40144000D03*
X205121000Y-40144000D03*
%LPD*%
M02*
