G04 #@! TF.GenerationSoftware,KiCad,Pcbnew,9.0.6*
G04 #@! TF.CreationDate,2026-03-05T16:11:11+09:00*
G04 #@! TF.ProjectId,PowerMeter2026-nRF,506f7765-724d-4657-9465-72323032362d,rev?*
G04 #@! TF.SameCoordinates,Original*
G04 #@! TF.FileFunction,Paste,Bot*
G04 #@! TF.FilePolarity,Positive*
%FSLAX46Y46*%
G04 Gerber Fmt 4.6, Leading zero omitted, Abs format (unit mm)*
G04 Created by KiCad (PCBNEW 9.0.6) date 2026-03-05 16:11:11*
%MOMM*%
%LPD*%
G01*
G04 APERTURE LIST*
G04 Aperture macros list*
%AMRoundRect*
0 Rectangle with rounded corners*
0 $1 Rounding radius*
0 $2 $3 $4 $5 $6 $7 $8 $9 X,Y pos of 4 corners*
0 Add a 4 corners polygon primitive as box body*
4,1,4,$2,$3,$4,$5,$6,$7,$8,$9,$2,$3,0*
0 Add four circle primitives for the rounded corners*
1,1,$1+$1,$2,$3*
1,1,$1+$1,$4,$5*
1,1,$1+$1,$6,$7*
1,1,$1+$1,$8,$9*
0 Add four rect primitives between the rounded corners*
20,1,$1+$1,$2,$3,$4,$5,0*
20,1,$1+$1,$4,$5,$6,$7,0*
20,1,$1+$1,$6,$7,$8,$9,0*
20,1,$1+$1,$8,$9,$2,$3,0*%
G04 Aperture macros list end*
%ADD10RoundRect,0.225000X0.225000X0.250000X-0.225000X0.250000X-0.225000X-0.250000X0.225000X-0.250000X0*%
%ADD11RoundRect,0.225000X-0.250000X0.225000X-0.250000X-0.225000X0.250000X-0.225000X0.250000X0.225000X0*%
%ADD12RoundRect,0.150000X-0.150000X0.587500X-0.150000X-0.587500X0.150000X-0.587500X0.150000X0.587500X0*%
%ADD13RoundRect,0.200000X-0.275000X0.200000X-0.275000X-0.200000X0.275000X-0.200000X0.275000X0.200000X0*%
%ADD14RoundRect,0.225000X-0.225000X-0.250000X0.225000X-0.250000X0.225000X0.250000X-0.225000X0.250000X0*%
%ADD15RoundRect,0.225000X0.225000X0.375000X-0.225000X0.375000X-0.225000X-0.375000X0.225000X-0.375000X0*%
%ADD16RoundRect,0.100000X-0.637500X-0.100000X0.637500X-0.100000X0.637500X0.100000X-0.637500X0.100000X0*%
%ADD17RoundRect,0.200000X-0.200000X-0.275000X0.200000X-0.275000X0.200000X0.275000X-0.200000X0.275000X0*%
%ADD18RoundRect,0.150000X0.512500X0.150000X-0.512500X0.150000X-0.512500X-0.150000X0.512500X-0.150000X0*%
G04 APERTURE END LIST*
D10*
X217141000Y-43744000D03*
X215591000Y-43744000D03*
D11*
X206566000Y-40139000D03*
X206566000Y-41689000D03*
X235966000Y-43929000D03*
X235966000Y-45479000D03*
D10*
X239580000Y-45680000D03*
X238030000Y-45680000D03*
D11*
X241808000Y-42350000D03*
X241808000Y-43900000D03*
D12*
X206830000Y-44920000D03*
X208730000Y-44920000D03*
X207780000Y-46795000D03*
D13*
X243332000Y-42355000D03*
X243332000Y-44005000D03*
D14*
X232590000Y-40360000D03*
X234140000Y-40360000D03*
D15*
X239767500Y-40300000D03*
X236467500Y-40300000D03*
D10*
X218521000Y-41134000D03*
X216971000Y-41134000D03*
D16*
X209477500Y-42485000D03*
X209477500Y-41835000D03*
X209477500Y-41185000D03*
X209477500Y-40535000D03*
X209477500Y-39885000D03*
X209477500Y-39235000D03*
X209477500Y-38585000D03*
X209477500Y-37935000D03*
X209477500Y-37285000D03*
X209477500Y-36635000D03*
X215202500Y-36635000D03*
X215202500Y-37285000D03*
X215202500Y-37935000D03*
X215202500Y-38585000D03*
X215202500Y-39235000D03*
X215202500Y-39885000D03*
X215202500Y-40535000D03*
X215202500Y-41185000D03*
X215202500Y-41835000D03*
X215202500Y-42485000D03*
D17*
X203471000Y-41664000D03*
X205121000Y-41664000D03*
X232601000Y-38862000D03*
X234251000Y-38862000D03*
D18*
X240079500Y-42250000D03*
X240079500Y-43200000D03*
X240079500Y-44150000D03*
X237804500Y-44150000D03*
X237804500Y-42250000D03*
D14*
X206185000Y-43140000D03*
X207735000Y-43140000D03*
D17*
X232570000Y-41910000D03*
X234220000Y-41910000D03*
X203471000Y-40144000D03*
X205121000Y-40144000D03*
M02*
